<svg width="133" height="45" xmlns="http://www.w3.org/2000/svg"><g fill="none" fill-rule="evenodd"><path d="M89 9.978S65.722-4.052 47.755 1.16A57.842 57.842 0 0 0 39.7 4.179a36.919 36.919 0 0 0-3.785-.618C21.34 1.971 1 10.778 1 10.778s17.231-3.985 32.257-3.137c-7.581 4.704-11.635 9.554-11.635 9.554s7.683-4.129 20.976-8.232C55.867 12.169 62.662 20 62.662 20s-4.526-7.785-14.208-12.715C69.664 1.851 89 9.978 89 9.978" fill="#BBD138"/><path d="M1.911 45c-.292 0-.588-.011-.891-.034a6.912 6.912 0 0 1-.835-.105L0 44.823V20h12.826l.037.186c.046.233.08.486.102.755.022.267.035.528.035.783 0 .258-.013.523-.035.8-.022.28-.056.54-.102.773l-.037.186H3.821v6.698h7.523l.035.192a9.623 9.623 0 0 1 .135 1.566 9.703 9.703 0 0 1-.135 1.57l-.035.188H3.821v11.13l-.186.034a8.124 8.124 0 0 1-.832.105c-.281.023-.577.034-.892.034" fill="#414B4E"/><path d="M19.137 45c-.228 0-.496-.011-.802-.034a7.07 7.07 0 0 1-.845-.105l-.187-.037V30.107h-2.12l-.043-.174a4.528 4.528 0 0 1-.105-.661 7.985 7.985 0 0 1-.035-.716c0-.234.013-.475.035-.719.022-.246.057-.467.105-.66l.043-.177H21v17.824l-.185.037a7.17 7.17 0 0 1-.845.105 11.21 11.21 0 0 1-.833.034" fill="#BBD138"/><path d="M26.99 45c-.262 0-.552-.011-.876-.034a9.173 9.173 0 0 1-.916-.104L25 44.83V27.17l.196-.035c.263-.047.513-.08.753-.106.487-.038 1.022-.04 1.549 0 .282.026.523.063.734.108l.151.033.031.146c.07.339.142.792.213 1.347.033.261.058.505.078.73a7.528 7.528 0 0 1 1.592-1.477c.847-.59 1.936-.887 3.24-.887.192 0 .388.005.593.018.207.013.386.03.533.056l.157.024.035.15c.048.205.085.428.11.667a7.381 7.381 0 0 1-.02 1.599c-.032.293-.075.58-.121.854l-.043.246-.252-.06a2.065 2.065 0 0 0-.521-.063h-.47c-.602 0-1.185.082-1.735.244a3.58 3.58 0 0 0-1.444.837c-.426.399-.77.958-1.025 1.662-.26.714-.389 1.652-.389 2.787v8.777l-.196.035a7.916 7.916 0 0 1-.885.104 12.32 12.32 0 0 1-.874.034m14.498 0c-1.104 0-2.098-.072-2.953-.219a15.506 15.506 0 0 1-2.36-.58L36 44.142l.02-.176c.049-.452.15-.914.304-1.368.16-.468.33-.92.508-1.338l.088-.208.223.085c.606.233 1.285.421 2.017.559 1.258.238 2.566.305 3.657.05.459-.101.86-.257 1.191-.46.334-.202.595-.44.798-.735.194-.277.292-.594.292-.94 0-.396-.077-.72-.229-.964a2.11 2.11 0 0 0-.629-.654 4.265 4.265 0 0 0-.95-.476c-.37-.14-.778-.277-1.217-.407l-1.223-.427c-1.504-.534-2.618-1.147-3.31-1.82-.71-.693-1.07-1.635-1.07-2.802 0-1.545.594-2.792 1.764-3.702 1.16-.902 2.873-1.36 5.09-1.36.914 0 1.821.083 2.698.25.897.172 1.649.36 2.301.58l.175.058-.02.176a7.862 7.862 0 0 1-.746 2.588l-.092.183-.205-.069a18.105 18.105 0 0 0-1.793-.497 9.843 9.843 0 0 0-2.215-.242c-.811 0-1.542.137-2.17.408-.572.243-.85.668-.85 1.297 0 .333.069.605.21.836.145.232.342.436.591.6.257.175.553.321.902.448.355.132.738.26 1.15.389l1.527.492c.571.182 1.114.396 1.607.631a4.95 4.95 0 0 1 1.346.95c.378.376.685.84.915 1.375.228.537.345 1.186.345 1.93 0 .836-.182 1.612-.543 2.303a5.14 5.14 0 0 1-1.542 1.778c-.65.481-1.451.863-2.38 1.133-.912.267-1.938.403-3.047.403M57.884 45c-1.604 0-2.883-.41-3.8-1.222-.925-.813-1.395-2.17-1.395-4.028v-9.448h-2.48L50 29.553 55.738 23h.58v4.221H60.5l.04.175c.09.398.134.84.134 1.316a7.59 7.59 0 0 1-.133 1.408l-.036.182h-4.187v7.552c0 .913.037 1.653.111 2.2.072.518.193.92.36 1.186.156.258.36.422.624.505.295.092.671.14 1.12.14.375 0 .702-.028 1.003-.08.3-.051.59-.112.863-.182l.196-.05.067.197c.158.468.255.946.288 1.423.034.48.05.887.05 1.246v.178l-.17.044c-.442.113-.911.197-1.393.253a13.91 13.91 0 0 1-1.553.086m20.648 0a14.03 14.03 0 0 1-1.805-.103l-.203-.027V23.487h-6.348l-.036-.188a5.954 5.954 0 0 1-.104-.773 8.287 8.287 0 0 1-.036-.8c0-.268.011-.532.036-.786.017-.238.051-.485.104-.752l.036-.188h16.646l.038.188c.045.231.08.478.106.734.019.261.034.515.034.773 0 .25-.015.525-.034.81a7.312 7.312 0 0 1-.106.794l-.038.188h-6.346V44.87l-.203.027c-.529.071-1.1.103-1.74.103m12.604 0c-.23 0-.497-.011-.802-.034a6.893 6.893 0 0 1-.843-.105l-.185-.037V30.107h-2.124l-.044-.174a5.705 5.705 0 0 1-.108-.657 8.86 8.86 0 0 1-.031-.72c0-.234.011-.475.031-.719.03-.26.065-.477.108-.66l.044-.177H93v17.824l-.185.037a7.106 7.106 0 0 1-.846.105c-.305.023-.585.034-.832.034m11.748 0c-1.6 0-2.881-.41-3.802-1.222-.923-.815-1.39-2.171-1.39-4.028v-9.448H95.21l-.21-.749.083-.094L100.74 23h.58v4.221h4.177l.04.175c.09.39.135.832.135 1.316a6.563 6.563 0 0 1-.133 1.41l-.038.18h-4.182v7.552c0 .948.038 1.668.112 2.198.072.52.192.922.358 1.19.156.256.36.42.625.503.292.092.67.14 1.12.14.371 0 .7-.028 1.006-.081.297-.05.585-.11.856-.18l.197-.05.066.196c.16.471.26.95.291 1.423.033.491.049.9.049 1.246v.178l-.167.044c-.446.113-.916.197-1.396.253-.523.058-1.03.086-1.552.086m10.678 0a6.16 6.16 0 0 1-1.746-.24 3.779 3.779 0 0 1-1.459-.806c-.421-.371-.76-.877-1-1.503-.24-.621-.357-1.372-.357-2.296V20.167l.175-.033c.232-.044.496-.076.787-.098a8.634 8.634 0 0 1 1.567 0c.289.02.546.053.788.098l.175.033v19.261c0 .588.052 1.054.15 1.384.091.316.214.556.367.718.152.16.322.26.52.302.396.089.799.1 1.343.045.227-.018.42-.05.58-.091l.208-.057.052.218c.19.778.288 1.638.288 2.564v.158l-.14.053a4.062 4.062 0 0 1-1.122.227c-.393.035-.79.051-1.176.051m7.536-10.842h8.1a5.574 5.574 0 0 0-.238-1.46 4.166 4.166 0 0 0-.713-1.385 3.345 3.345 0 0 0-1.176-.932c-.48-.233-1.055-.354-1.715-.354-1.323 0-2.305.372-3.003 1.136-.659.721-1.08 1.73-1.255 2.995zM126.242 45c-1.601 0-3.003-.219-4.168-.653-1.166-.441-2.139-1.066-2.89-1.856a7.27 7.27 0 0 1-1.663-2.831c-.346-1.07-.521-2.262-.521-3.546 0-1.254.17-2.444.502-3.542.337-1.105.862-2.079 1.556-2.891a7.518 7.518 0 0 1 2.646-1.956c1.06-.48 2.325-.725 3.755-.725 1.229 0 2.324.204 3.257.608a6.704 6.704 0 0 1 2.36 1.677 7.195 7.195 0 0 1 1.435 2.527 9.94 9.94 0 0 1 .489 3.159c0 .31-.011.633-.034.978-.024.342-.047.63-.07.87l-.016.203h-11.837c.077 1.643.548 2.866 1.398 3.636.892.805 2.24 1.214 4.004 1.214a12.7 12.7 0 0 0 4.504-.803l.194-.072.098.175c.186.344.342.763.46 1.248.116.474.183.941.212 1.428l.009.157-.149.06c-.762.313-1.584.542-2.517.703a18.4 18.4 0 0 1-3.014.232z" fill="#414B4E"/></g></svg>