
<svg width="7997px" height="1809px" viewBox="0 0 7997 1809" version="1.1" xmlns="http://www.w3.org/2000/svg" xmlns:xlink="http://www.w3.org/1999/xlink">
    <g id="Page-1" stroke="none" stroke-width="1" fill="none" fill-rule="evenodd">
        <g id="Logo-Yellow-on-White" transform="translate(0.000000, -1.000000)" fill="#ED9F00">
            <g id="Group" transform="translate(0.000000, 1.000000)">
                <path d="M1507.91224,1232.37524 C1507.91224,1282.9084 1517.04398,1330.1887 1535.30773,1374.21759 C1553.57149,1418.24647 1578.58995,1456.52101 1610.36387,1489.04235 C1642.1378,1521.56368 1679.66549,1547.3302 1722.94808,1566.34267 C1766.23067,1585.35514 1813.14029,1594.86124 1863.67835,1594.86124 C1913.71602,1594.86124 1960.37546,1585.35514 2003.65805,1566.34267 C2046.94064,1547.3302 2084.59342,1521.56368 2116.61754,1489.04235 C2148.64165,1456.52101 2173.78521,1418.24647 2192.04896,1374.21759 C2210.31271,1330.1887 2219.44445,1282.9084 2219.44445,1232.37524 C2219.44445,1182.34242 2210.31271,1135.31227 2192.04896,1091.28339 C2173.78521,1047.2545 2148.64165,1008.85489 2116.61754,976.083388 C2084.59342,943.311888 2046.94064,917.420291 2003.65805,898.407818 C1960.37546,879.395345 1913.71602,869.889251 1863.67835,869.889251 C1813.14029,869.889251 1766.23067,879.395345 1722.94808,898.407818 C1679.66549,917.420291 1642.1378,943.311888 1610.36387,976.083388 C1578.58995,1008.85489 1553.57149,1047.2545 1535.30773,1091.28339 C1517.04398,1135.31227 1507.91224,1182.34242 1507.91224,1232.37524 Z M1291,1233.87622 C1291,1181.34176 1297.75499,1130.5592 1311.26516,1081.52704 C1324.77533,1032.49487 1344.03955,986.715522 1369.05839,944.187622 C1394.07722,901.659722 1423.97429,862.884866 1458.75047,827.861889 C1493.52666,792.838913 1532.18018,762.944749 1574.71221,738.178502 C1617.24423,713.412254 1662.90293,694.149906 1711.68966,680.390879 C1760.4764,666.631853 1811.38897,659.752443 1864.42891,659.752443 C1916.96847,659.752443 1967.63086,666.631853 2016.41759,680.390879 C2065.20433,694.149906 2110.86302,713.412254 2153.39505,738.178502 C2195.92707,762.944749 2234.70569,792.838913 2269.73206,827.861889 C2304.75844,862.884866 2334.6555,901.659722 2359.42415,944.187622 C2384.1928,986.715522 2403.45702,1032.49487 2417.21738,1081.52704 C2430.97774,1130.5592 2437.85782,1181.59192 2437.85782,1234.62671 C2437.85782,1287.6615 2430.97774,1338.44406 2417.21738,1386.9759 C2403.45702,1435.50773 2384.1928,1481.03692 2359.42415,1523.56482 C2334.6555,1566.09272 2304.75844,1604.7425 2269.73206,1639.51531 C2234.70569,1674.28812 2195.92707,1704.05721 2153.39505,1728.82345 C2110.86302,1753.5897 2065.20433,1772.72697 2016.41759,1786.23583 C1967.63086,1799.74469 1916.71828,1806.49902 1863.67835,1806.49902 C1810.63841,1806.49902 1759.72584,1799.74469 1710.9391,1786.23583 C1662.15237,1772.72697 1616.49367,1753.46462 1573.96165,1728.44821 C1531.42962,1703.4318 1492.7761,1673.53763 1457.99991,1638.76482 C1423.22373,1603.99201 1393.45175,1565.46731 1368.6831,1523.18958 C1343.91445,1480.91184 1324.77533,1435.38265 1311.26516,1386.60065 C1297.75499,1337.81865 1291,1286.91101 1291,1233.87622 Z M2707.26985,1337.44365 C2707.26985,1379.47122 2713.27428,1417.24543 2725.28332,1450.76743 C2737.29236,1484.28942 2754.17983,1512.68262 2775.94622,1535.94788 C2797.71261,1559.21315 2823.73181,1576.97453 2854.0046,1589.23257 C2884.2774,1601.49062 2917.92723,1607.61954 2954.95511,1607.61954 C2993.9845,1607.61954 3029.01035,1601.11537 3060.03371,1588.10684 C3091.05706,1575.09831 3117.20136,1556.71152 3138.46737,1532.94593 C3159.73338,1509.18034 3175.99538,1480.66206 3187.25386,1447.39023 C3198.51234,1414.1184 3204.14149,1377.46991 3204.14149,1337.44365 L3204.14149,708.534202 C3204.14149,699.528294 3207.39389,691.773322 3213.89879,685.269055 C3220.40369,678.764788 3228.65978,675.512704 3238.66732,675.512704 L3384.27623,675.512704 C3394.78414,675.512704 3403.6657,678.764788 3410.92116,685.269055 C3418.17662,691.773322 3421.8043,699.528294 3421.8043,708.534202 L3421.8043,1345.69902 C3421.8043,1423.2499 3409.29507,1490.91828 3384.27623,1548.70619 C3359.25739,1606.4941 3325.48247,1654.64997 3282.95044,1693.17524 C3240.41842,1731.70052 3190.88186,1760.46896 3134.33928,1779.48143 C3077.79671,1798.49391 3018.00258,1808 2954.95511,1808 C2891.90764,1808 2832.11351,1797.86851 2775.57094,1777.60521 C2719.02836,1757.34192 2669.4918,1727.69791 2626.95978,1688.67231 C2584.42775,1649.64671 2550.65283,1601.36576 2525.63399,1543.82801 C2500.61515,1486.29027 2488.10592,1420.24793 2488.10592,1345.69902 L2488.10592,708.534202 C2488.10592,700.52895 2490.98304,693.024139 2496.73738,686.019544 C2502.49171,679.014949 2509.87216,675.512704 2518.87894,675.512704 L2671.99346,675.512704 C2679.49911,675.512704 2687.25484,678.764788 2695.26087,685.269055 C2703.26689,691.773322 2707.26985,699.528294 2707.26985,708.534202 L2707.26985,1337.44365 Z M4143.05429,972.706189 C4136.5494,972.706189 4130.54496,971.080147 4125.04082,967.828013 C4119.53668,964.57588 4113.28206,960.198073 4106.27678,954.694463 L4104.77566,953.943974 C4095.2685,944.437737 4083.00946,933.931002 4067.99815,922.423453 C4052.98685,910.915903 4036.22448,900.159008 4017.71054,890.152443 C3999.1966,880.145878 3979.30692,871.640426 3958.04091,864.635831 C3936.7749,857.631235 3915.13393,854.12899 3893.11735,854.12899 C3865.09625,854.12899 3840.32797,857.255995 3818.81177,863.510098 C3797.29557,869.764201 3779.28228,878.269653 3764.77135,889.02671 C3750.26042,899.783767 3739.2523,912.416866 3731.74665,926.926384 C3724.241,941.435903 3720.48823,956.945846 3720.48823,973.456678 C3720.48823,991.468494 3726.11738,1007.2286 3737.37586,1020.73746 C3748.63434,1034.24632 3763.8956,1046.25402 3783.1601,1056.76091 C3802.42461,1067.2678 3824.56595,1076.89898 3849.58479,1085.65472 C3874.60363,1094.41047 3900.87301,1103.041 3928.39373,1111.54658 C3959.91747,1121.05282 3991.19055,1131.30939 4022.21391,1142.31661 C4053.23727,1153.32383 4082.88415,1165.70677 4111.15543,1179.4658 C4139.42672,1193.22482 4165.8212,1208.48461 4190.33966,1225.2456 C4214.85812,1242.0066 4235.99872,1261.26895 4253.7621,1283.03322 C4271.52547,1304.7975 4285.53581,1329.06306 4295.79354,1355.83062 C4306.05126,1382.59818 4311.18005,1412.7425 4311.18005,1446.2645 C4311.18005,1500.80027 4300.17192,1550.08186 4278.15534,1594.11075 C4256.13877,1638.13963 4225.74133,1675.78877 4186.96214,1707.05928 C4148.18294,1738.3298 4102.64933,1762.34519 4050.35996,1779.10619 C3998.07059,1795.86718 3941.90414,1804.24756 3881.85893,1804.24756 C3843.32992,1804.24756 3805.05167,1799.74467 3767.02303,1790.73876 C3728.9944,1781.73285 3692.46744,1768.97468 3657.44107,1752.46384 C3622.4147,1735.95301 3589.26523,1716.06526 3557.99168,1692.8 C3526.71814,1669.53474 3498.82255,1643.39298 3474.30409,1614.37394 L3474.30409,1615.12443 L3472.80297,1612.12248 C3461.79468,1599.61427 3456.29061,1588.10689 3456.29061,1577.6 C3456.29061,1572.09639 3457.79172,1566.84302 3460.79398,1561.83974 C3463.79624,1556.83646 3468.29957,1551.33293 3474.30409,1545.32899 L3499.07261,1520.56287 C3506.57827,1514.0586 3514.58417,1506.80395 3523.09058,1498.7987 C3531.59698,1490.79345 3540.10326,1483.53879 3548.60967,1477.03453 C3557.11607,1470.53026 3564.99689,1465.02673 3572.25235,1460.52378 C3579.50781,1456.02082 3585.38715,1453.76938 3589.89054,1453.76938 C3596.89582,1453.76938 3603.40062,1456.02082 3609.40514,1460.52378 C3615.40966,1465.02673 3620.41335,1469.27946 3624.41637,1473.28208 L3627.41861,1476.28404 L3626.66805,1476.28404 C3644.18124,1492.79487 3663.82073,1508.55497 3685.58712,1523.56482 C3707.35351,1538.57467 3729.74504,1551.95825 3752.76237,1563.71596 C3775.7797,1575.47367 3798.67159,1584.72961 3821.43873,1591.48404 C3844.20588,1598.23847 3865.59666,1601.61564 3885.61173,1601.61564 C3913.13246,1601.61564 3938.90147,1598.11339 3962.91956,1591.10879 C3986.93764,1584.1042 4007.70297,1574.22287 4025.21615,1561.4645 C4042.72934,1548.70613 4056.4895,1533.32126 4066.49703,1515.30945 C4076.50457,1497.29763 4081.50826,1477.2848 4081.50826,1455.27036 C4081.50826,1433.25592 4075.00346,1414.36881 4061.99366,1398.60847 C4048.98387,1382.84813 4031.97131,1369.08931 4010.95549,1357.3316 C3989.93966,1345.57388 3966.29722,1335.44239 3940.02744,1326.93681 C3913.75766,1318.43123 3887.36318,1310.4261 3860.84321,1302.92117 C3799.79724,1284.40903 3746.38282,1264.3962 3700.59835,1242.88208 C3654.81388,1221.36797 3616.66072,1197.2275 3586.13774,1170.45993 C3555.61475,1143.69237 3532.72286,1113.67313 3517.46137,1080.4013 C3502.19988,1047.12948 3494.56925,1009.7305 3494.56925,968.203257 C3494.56925,921.672732 3503.95117,879.27055 3522.7153,840.99544 C3541.47943,802.72033 3568.12409,769.949322 3602.65009,742.681433 C3637.17608,715.413544 3678.70673,694.149913 3727.24328,678.889902 C3775.77983,663.629891 3830.06989,656 3890.1151,656 C3935.64939,656 3981.93354,663.12957 4028.96896,677.388925 C4076.00438,691.64828 4119.5365,711.285868 4159.56664,736.30228 C4171.57569,743.807204 4183.83473,752.312656 4196.34415,761.818893 C4208.85357,771.325129 4220.36206,780.956303 4230.86998,790.712704 C4241.37789,800.469104 4250.00926,809.975198 4256.76435,819.23127 C4263.51943,828.487343 4266.89692,836.367394 4266.89692,842.871661 C4266.89692,848.8756 4265.39582,855.004529 4262.39356,861.258632 C4259.39129,867.512735 4255.63853,873.141343 4251.13513,878.144625 L4228.61829,902.160261 L4228.61829,901.409772 C4221.11264,909.415024 4213.35692,917.670316 4205.35089,926.175896 C4197.34486,934.681476 4189.33895,942.311367 4181.33292,949.065798 C4173.3269,955.820229 4166.07154,961.448837 4159.56664,965.951792 C4153.06175,970.454746 4147.55768,972.706189 4143.05429,972.706189 Z M5033.85215,710.785668 C5033.85215,687.270241 5044.86027,675.512704 5066.87685,675.512704 L5526.22042,675.512704 C5576.75848,675.512704 5624.04337,685.018797 5668.07653,704.03127 C5712.10968,723.043743 5750.51302,748.810261 5783.2877,781.331596 C5816.06238,813.852931 5841.8314,852.127467 5860.59553,896.156352 C5879.35966,940.185236 5888.74158,986.965225 5888.74158,1036.49772 C5888.74158,1071.02037 5883.98807,1104.04154 5874.48091,1135.56221 C5864.97375,1167.08289 5851.71397,1196.35166 5834.70116,1223.36938 C5817.68835,1250.38711 5797.42339,1274.77774 5773.90569,1296.54202 C5750.38798,1318.3063 5724.36878,1336.69308 5695.8473,1351.70293 L5890.99326,1736.70358 C5891.99402,1741.70687 5893.74531,1746.71007 5896.24719,1751.71336 C5898.74908,1756.71664 5900,1761.97001 5900,1767.47362 C5900,1782.48346 5891.24354,1789.98827 5873.73035,1789.98827 L5699.60011,1789.98827 C5681.58654,1789.98827 5669.57768,1780.73234 5663.57316,1762.2202 L5481.9373,1401.98567 C5473.93127,1401.98567 5465.2999,1402.11075 5456.04293,1402.36091 C5446.78596,1402.61108 5434.02655,1402.73616 5417.7643,1402.73616 L5252.26551,1402.73616 L5252.26551,1757.71726 C5252.26551,1779.23138 5240.75702,1789.98827 5217.73969,1789.98827 L5066.87685,1789.98827 C5056.86931,1789.98827 5048.86341,1787.36159 5042.85888,1782.10814 C5036.85436,1776.8547 5033.85215,1768.72449 5033.85215,1757.71726 L5033.85215,710.785668 Z M5666.57541,1037.24821 C5666.57541,1015.73409 5662.57245,994.845704 5654.56642,974.58241 C5646.56039,954.319117 5635.30209,936.18249 5620.79116,920.171987 C5606.28023,904.161483 5589.01749,891.153144 5569.00242,881.14658 C5548.98735,871.140015 5527.22129,865.386327 5503.70358,863.885342 C5486.1904,863.385014 5469.05275,863.009773 5452.29013,862.759609 C5435.5275,862.509445 5418.13967,862.384365 5400.12611,862.384365 L5252.26551,862.384365 L5252.26551,1211.36156 L5450.41372,1211.36156 C5460.42126,1211.36156 5469.80318,1211.36156 5478.55978,1211.36156 C5487.31637,1211.36156 5496.69829,1210.86124 5506.70583,1209.86059 C5530.22354,1208.3596 5551.86451,1202.85607 5571.62939,1193.34984 C5591.39427,1183.8436 5608.28173,1171.2105 5622.29228,1155.45016 C5636.30283,1139.68982 5647.18586,1121.67828 5654.9417,1101.41498 C5662.69754,1081.15169 5666.57541,1059.76298 5666.57541,1037.24821 Z" id="OUS-R-Copy" stroke="#ED9F00" stroke-width="0.5"></path>
                <path d="M7065.93914,1231.74935 C7065.93914,1282.29366 7075.07201,1329.58442 7093.33802,1373.62304 C7111.60404,1417.66165 7136.6256,1455.94465 7168.40347,1488.47317 C7200.18133,1521.00169 7237.71368,1546.7739 7281.00164,1565.79058 C7324.28959,1584.80725 7371.20503,1594.31545 7421.74935,1594.31545 C7471.79323,1594.31545 7518.45844,1584.80725 7561.7464,1565.79058 C7605.03436,1546.7739 7642.69181,1521.00169 7674.7199,1488.47317 C7706.74798,1455.94465 7731.89465,1417.66165 7750.16067,1373.62304 C7768.42668,1329.58442 7777.55955,1282.29366 7777.55955,1231.74935 C7777.55955,1181.70547 7768.42668,1134.66492 7750.16067,1090.62631 C7731.89465,1046.58769 7706.74798,1008.17959 7674.7199,975.400851 C7642.69181,942.622109 7605.03436,916.72479 7561.7464,897.708115 C7518.45844,878.691441 7471.79323,869.183246 7421.74935,869.183246 C7371.20503,869.183246 7324.28959,878.691441 7281.00164,897.708115 C7237.71368,916.72479 7200.18133,942.622109 7168.40347,975.400851 C7136.6256,1008.17959 7111.60404,1046.58769 7093.33802,1090.62631 C7075.07201,1134.66492 7065.93914,1181.70547 7065.93914,1231.74935 Z M6849,1233.25065 C6849,1180.70458 6855.75582,1129.9108 6869.26767,1080.8678 C6882.77952,1031.8248 6902.04612,986.035335 6927.06806,943.498037 C6952.09,900.960738 6981.99077,862.177313 7016.77127,827.146597 C7051.55177,792.115881 7090.21008,762.215111 7132.74738,737.44339 C7175.28468,712.671669 7220.94904,693.405064 7269.74182,679.642997 C7318.5346,665.88093 7369.45349,659 7422.5,659 C7475.04607,659 7525.71474,665.88093 7574.50753,679.642997 C7623.30031,693.405064 7668.96467,712.671669 7711.50196,737.44339 C7754.03926,762.215111 7792.82269,792.115881 7827.8534,827.146597 C7862.88412,862.177313 7892.78489,900.960738 7917.55661,943.498037 C7942.32833,986.035335 7961.59494,1031.8248 7975.357,1080.8678 C7989.11907,1129.9108 7996,1180.9548 7996,1234.00131 C7996,1287.04782 7989.11907,1337.8416 7975.357,1386.38416 C7961.59494,1434.92673 7942.32833,1480.46597 7917.55661,1523.00327 C7892.78489,1565.54057 7862.88412,1604.19889 7827.8534,1638.97938 C7792.82269,1673.75988 7754.03926,1703.53554 7711.50196,1728.30726 C7668.96467,1753.07899 7623.30031,1772.22048 7574.50753,1785.73233 C7525.71474,1799.24418 7474.79586,1806 7421.74935,1806 C7368.70283,1806 7317.78395,1799.24418 7268.99116,1785.73233 C7220.19838,1772.22048 7174.53403,1752.95388 7131.99673,1727.93194 C7089.45943,1702.91 7050.80111,1673.00923 7016.02062,1638.22873 C6981.24012,1603.44823 6951.46446,1564.91502 6926.69274,1522.62795 C6901.92101,1480.34087 6882.77952,1434.80162 6869.26767,1386.00884 C6855.75582,1337.21605 6849,1286.29717 6849,1233.25065 Z" id="O-Copy-2" stroke="#ED9F00" stroke-width="0.5"></path>
                <path d="M6127.93914,1231.74935 C6127.93914,1282.29366 6137.07201,1329.58442 6155.33802,1373.62304 C6173.60404,1417.66165 6198.6256,1455.94465 6230.40347,1488.47317 C6262.18133,1521.00169 6299.71368,1546.7739 6343.00164,1565.79058 C6386.28959,1584.80725 6433.20503,1594.31545 6483.74935,1594.31545 C6533.79323,1594.31545 6580.45844,1584.80725 6623.7464,1565.79058 C6667.03436,1546.7739 6704.69181,1521.00169 6736.7199,1488.47317 C6768.74798,1455.94465 6793.89465,1417.66165 6812.16067,1373.62304 C6830.42668,1329.58442 6839.55955,1282.29366 6839.55955,1231.74935 C6839.55955,1181.70547 6830.42668,1134.66492 6812.16067,1090.62631 C6793.89465,1046.58769 6768.74798,1008.17959 6736.7199,975.400851 C6704.69181,942.622109 6667.03436,916.72479 6623.7464,897.708115 C6580.45844,878.691441 6533.79323,869.183246 6483.74935,869.183246 C6433.20503,869.183246 6386.28959,878.691441 6343.00164,897.708115 C6299.71368,916.72479 6262.18133,942.622109 6230.40347,975.400851 C6198.6256,1008.17959 6173.60404,1046.58769 6155.33802,1090.62631 C6137.07201,1134.66492 6127.93914,1181.70547 6127.93914,1231.74935 Z M5911,1233.25065 C5911,1180.70458 5917.75582,1129.9108 5931.26767,1080.8678 C5944.77952,1031.8248 5964.04612,986.035335 5989.06806,943.498037 C6014.09,900.960738 6043.99077,862.177313 6078.77127,827.146597 C6113.55177,792.115881 6152.21008,762.215111 6194.74738,737.44339 C6237.28468,712.671669 6282.94904,693.405064 6331.74182,679.642997 C6380.5346,665.88093 6431.45349,659 6484.5,659 C6537.04607,659 6587.71474,665.88093 6636.50753,679.642997 C6685.30031,693.405064 6730.96467,712.671669 6773.50196,737.44339 C6816.03926,762.215111 6854.82269,792.115881 6889.8534,827.146597 C6924.88412,862.177313 6954.78489,900.960738 6979.55661,943.498037 C7004.32833,986.035335 7023.59494,1031.8248 7037.357,1080.8678 C7051.11907,1129.9108 7058,1180.9548 7058,1234.00131 C7058,1287.04782 7051.11907,1337.8416 7037.357,1386.38416 C7023.59494,1434.92673 7004.32833,1480.46597 6979.55661,1523.00327 C6954.78489,1565.54057 6924.88412,1604.19889 6889.8534,1638.97938 C6854.82269,1673.75988 6816.03926,1703.53554 6773.50196,1728.30726 C6730.96467,1753.07899 6685.30031,1772.22048 6636.50753,1785.73233 C6587.71474,1799.24418 6536.79586,1806 6483.74935,1806 C6430.70283,1806 6379.78395,1799.24418 6330.99116,1785.73233 C6282.19838,1772.22048 6236.53403,1752.95388 6193.99673,1727.93194 C6151.45943,1702.91 6112.80111,1673.00923 6078.02062,1638.22873 C6043.24012,1603.44823 6013.46446,1564.91502 5988.69274,1522.62795 C5963.92101,1480.34087 5944.77952,1434.80162 5931.26767,1386.00884 C5917.75582,1337.21605 5911,1286.29717 5911,1233.25065 Z" id="O-Copy-3" stroke="#ED9F00" stroke-width="0.5"></path>
                <path d="M4366,705 L4366,1764 C4366,1784.43454 4382.56546,1801 4403,1801 L4900,1801 C4920.43454,1801 4937,1784.43454 4937,1764 L4937,1643.88091 C4937,1623.44637 4920.43454,1606.88091 4900,1606.88091 L4582.6548,1606.88091 L4582.6548,1335.17281 L4852.72897,1335.17281 C4873.1635,1335.17281 4889.72897,1318.60734 4889.72897,1298.17281 L4889.72897,1171.78937 C4889.72897,1151.35483 4873.1635,1134.78937 4852.72897,1134.78937 L4582.6548,1134.78937 L4582.6548,864.868391 L4900,864.868391 C4920.43454,864.868391 4937,848.302927 4937,827.868391 L4937,705 C4937,684.565464 4920.43454,668 4900,668 L4403,668 C4382.56546,668 4366,684.565464 4366,705 Z" id="Path-7-Copy-2"></path>
                <path d="M246,819.662984 L246,1751 C246,1771.98682 263.01318,1789 284,1789 L450,1789 C470.98682,1789 488,1771.98682 488,1751 L488,650.998823 C488,643.266836 481.731986,636.998823 474,636.998823 C470.765481,636.998823 467.630745,638.118811 465.128527,640.16845 L246,819.662984 Z" id="Path-Copy-9"></path>
                <polygon id="Path-Copy-10" transform="translate(764.000000, 1229.500000) rotate(-270.000000) translate(-764.000000, -1229.500000) " points="648 865 648 1594 880 1594 880 905.52915"></polygon>
                <path d="M978,831.333751 L978,1751 C978,1771.98682 995.01318,1789 1016,1789 L1182,1789 C1202.98682,1789 1220,1771.98682 1220,1751 L1220,650.999596 C1220,643.267609 1213.73199,636.999596 1206,636.999596 C1202.72946,636.999596 1199.56212,638.144629 1197.04763,640.235995 L984.850358,816.726007 C980.510222,820.335811 978,825.688624 978,831.333751 Z" id="Path-Copy-11" transform="translate(1099.000000, 1213.000000) scale(-1, 1) translate(-1099.000000, -1213.000000) "></path>
                <path d="M27.2947462,796.529697 L721.887726,267.964099 C729.803697,261.94027 740.776889,261.977584 748.651709,268.05511 L1420.61349,786.652998 C1428.04619,792.389311 1438.72178,791.014116 1444.4581,783.581415 C1446.75444,780.605976 1448,776.953418 1448,773.194902 L1448,583.864477 C1448,557.147356 1435.72426,531.911708 1414.70517,515.419208 L775.755109,14.0708856 C751.970823,-4.59131096 718.547689,-4.70769769 694.63401,13.7884041 L33.7728109,524.933345 C12.4710738,541.409233 3.9334604e-14,566.821088 4.26325641e-14,593.750976 L1.63424829e-13,783.001275 C1.02032388e-13,792.390116 7.61115925,800.001275 17,800.001275 C20.7189291,800.001275 24.3352614,798.781781 27.2947462,796.529697 Z" id="Path-4-Copy-3"></path>
            </g>
        </g>
    </g>
</svg>