<?xml version="1.0" encoding="UTF-8" standalone="no"?>
<!DOCTYPE svg PUBLIC "-//W3C//DTD SVG 1.1//EN" "http://www.w3.org/Graphics/SVG/1.1/DTD/svg11.dtd">
<svg width="100%" height="100%" viewBox="0 0 80 30" version="1.1" xmlns="http://www.w3.org/2000/svg" xmlns:xlink="http://www.w3.org/1999/xlink" xml:space="preserve" xmlns:serif="http://www.serif.com/" style="fill-rule:evenodd;clip-rule:evenodd;stroke-linejoin:round;stroke-miterlimit:2;">
    <g transform="matrix(1,0,0,1,-5.68434e-14,-363.087)">
        <g id="Konekta_powered-by_extralight" serif:id="Konekta_powered by_extralight" transform="matrix(0.67076,0,0,0.227579,-271.392,315.151)">
            <rect x="404.603" y="210.636" width="119.268" height="131.822" style="fill:none;"/>
            <clipPath id="_clip1">
                <rect x="404.603" y="210.636" width="119.268" height="131.822"/>
            </clipPath>
            <g clip-path="url(#_clip1)">
                <g transform="matrix(1.51216,0,0,4.39407,-135.741,-1919.05)">
                    <g transform="matrix(1.42357,0,0,1.42357,-1548.86,141.099)">
                        <g transform="matrix(11.2394,0,0,11.2394,1356,254.978)">
                            <path d="M0.323,-0.55C0.374,-0.55 0.42,-0.539 0.461,-0.517C0.502,-0.494 0.534,-0.462 0.557,-0.42C0.58,-0.378 0.591,-0.329 0.591,-0.272C0.591,-0.215 0.58,-0.165 0.557,-0.123C0.534,-0.081 0.502,-0.049 0.461,-0.027C0.42,-0.004 0.374,0.007 0.323,0.007C0.272,0.007 0.227,-0.004 0.186,-0.027C0.145,-0.049 0.113,-0.081 0.09,-0.124C0.067,-0.166 0.055,-0.215 0.055,-0.272C0.055,-0.329 0.067,-0.378 0.09,-0.42C0.113,-0.462 0.145,-0.494 0.186,-0.517C0.227,-0.539 0.272,-0.55 0.323,-0.55ZM0.323,-0.51C0.284,-0.51 0.247,-0.501 0.214,-0.484C0.18,-0.467 0.153,-0.44 0.132,-0.405C0.111,-0.369 0.101,-0.325 0.101,-0.272C0.101,-0.219 0.111,-0.175 0.132,-0.139C0.153,-0.103 0.18,-0.076 0.214,-0.059C0.247,-0.042 0.284,-0.033 0.323,-0.033C0.362,-0.033 0.399,-0.042 0.433,-0.059C0.466,-0.076 0.493,-0.103 0.514,-0.139C0.535,-0.175 0.545,-0.219 0.545,-0.272C0.545,-0.325 0.535,-0.369 0.515,-0.405C0.494,-0.44 0.467,-0.467 0.434,-0.484C0.4,-0.501 0.363,-0.51 0.323,-0.51Z" style="fill:rgb(37,37,37);fill-rule:nonzero;"/>
                        </g>
                        <g transform="matrix(11.2394,0,0,11.2394,1363.6,254.978)">
                            <path d="M0.333,-0.554C0.397,-0.554 0.449,-0.534 0.489,-0.494C0.529,-0.454 0.549,-0.395 0.549,-0.317L0.549,0L0.504,0L0.504,-0.315C0.504,-0.38 0.488,-0.43 0.455,-0.465C0.422,-0.499 0.378,-0.516 0.321,-0.516C0.262,-0.516 0.215,-0.497 0.18,-0.459C0.144,-0.42 0.126,-0.364 0.126,-0.289L0.126,0L0.081,0L0.081,-0.543L0.126,-0.543L0.126,-0.4C0.139,-0.451 0.165,-0.489 0.203,-0.515C0.24,-0.541 0.284,-0.554 0.333,-0.554Z" style="fill:rgb(37,37,37);fill-rule:nonzero;"/>
                        </g>
                        <g transform="matrix(11.2394,0,0,11.2394,1370.95,254.978)">
                            <path d="M0.317,-0.031C0.372,-0.031 0.418,-0.045 0.455,-0.073C0.492,-0.1 0.515,-0.138 0.523,-0.186L0.57,-0.186C0.56,-0.128 0.533,-0.081 0.489,-0.046C0.444,-0.011 0.388,0.007 0.319,0.007C0.268,0.007 0.222,-0.004 0.183,-0.027C0.143,-0.049 0.112,-0.081 0.089,-0.123C0.066,-0.165 0.055,-0.215 0.055,-0.272C0.055,-0.329 0.066,-0.378 0.089,-0.42C0.112,-0.462 0.143,-0.494 0.183,-0.517C0.222,-0.539 0.268,-0.55 0.319,-0.55C0.372,-0.55 0.417,-0.539 0.456,-0.517C0.494,-0.494 0.523,-0.465 0.543,-0.429C0.562,-0.392 0.572,-0.353 0.572,-0.312C0.572,-0.295 0.57,-0.278 0.567,-0.259L0.1,-0.259C0.101,-0.208 0.111,-0.166 0.132,-0.132C0.152,-0.097 0.178,-0.072 0.211,-0.056C0.243,-0.039 0.278,-0.031 0.317,-0.031ZM0.319,-0.513C0.28,-0.513 0.244,-0.505 0.211,-0.488C0.178,-0.471 0.152,-0.446 0.132,-0.412C0.111,-0.378 0.101,-0.336 0.1,-0.286L0.528,-0.286C0.531,-0.336 0.522,-0.378 0.503,-0.412C0.484,-0.447 0.458,-0.472 0.425,-0.489C0.392,-0.505 0.357,-0.513 0.319,-0.513Z" style="fill:rgb(37,37,37);fill-rule:nonzero;"/>
                        </g>
                        <g transform="matrix(11.2394,0,0,11.2394,1378.34,254.978)">
                            <path d="M0.361,0L0.126,-0.25L0.126,0L0.081,0L0.081,-0.74L0.126,-0.74L0.126,-0.299L0.356,-0.543L0.415,-0.543L0.157,-0.274L0.421,0L0.361,0Z" style="fill:rgb(37,37,37);fill-rule:nonzero;"/>
                        </g>
                        <g transform="matrix(11.2394,0,0,11.2394,1383.51,254.978)">
                            <path d="M0.15,-0.502L0.15,-0.153C0.15,-0.11 0.158,-0.08 0.173,-0.065C0.188,-0.049 0.215,-0.041 0.254,-0.041L0.311,-0.041L0.311,0L0.249,0C0.199,0 0.163,-0.012 0.14,-0.035C0.117,-0.058 0.105,-0.098 0.105,-0.153L0.105,-0.502L0.019,-0.502L0.019,-0.543L0.105,-0.543L0.105,-0.681L0.15,-0.681L0.15,-0.543L0.311,-0.543L0.311,-0.502L0.15,-0.502Z" style="fill:rgb(37,37,37);fill-rule:nonzero;"/>
                        </g>
                        <g transform="matrix(11.2394,0,0,11.2394,1387.78,254.978)">
                            <path d="M0.314,-0.55C0.373,-0.55 0.423,-0.535 0.464,-0.503C0.505,-0.472 0.532,-0.432 0.547,-0.381L0.547,-0.543L0.592,-0.543L0.592,0L0.547,0L0.547,-0.162C0.532,-0.111 0.505,-0.07 0.464,-0.04C0.423,-0.009 0.373,0.007 0.314,0.007C0.263,0.007 0.219,-0.004 0.18,-0.027C0.141,-0.049 0.11,-0.081 0.088,-0.124C0.066,-0.166 0.055,-0.215 0.055,-0.272C0.055,-0.329 0.066,-0.378 0.088,-0.42C0.11,-0.462 0.141,-0.494 0.18,-0.517C0.219,-0.539 0.263,-0.55 0.314,-0.55ZM0.324,-0.51C0.256,-0.51 0.202,-0.489 0.162,-0.446C0.121,-0.403 0.101,-0.345 0.101,-0.272C0.101,-0.198 0.121,-0.14 0.161,-0.097C0.201,-0.054 0.255,-0.033 0.324,-0.033C0.367,-0.033 0.405,-0.043 0.439,-0.063C0.473,-0.082 0.5,-0.11 0.519,-0.147C0.538,-0.183 0.547,-0.225 0.547,-0.272C0.547,-0.319 0.538,-0.361 0.519,-0.397C0.5,-0.433 0.473,-0.461 0.439,-0.481C0.405,-0.5 0.367,-0.51 0.324,-0.51Z" style="fill:rgb(37,37,37);fill-rule:nonzero;"/>
                        </g>
                    </g>
                    <g transform="matrix(1,0,0,1,-875.688,706.747)">
                        <path d="M1233.02,-205.59L1238.05,-200.564L1238.05,-192.108L1233.02,-192.108L1233.02,-205.59ZM1238.05,-213.653L1233.02,-208.626L1233.02,-222.108L1238.05,-222.108L1238.05,-213.653Z" style="fill:rgb(0,73,137);"/>
                    </g>
                    <g transform="matrix(1,0,0,1,-1035.06,706.747)">
                        <path d="M1408.32,-192.108L1410.09,-193.872L1396.85,-207.108L1410.09,-220.345L1408.32,-222.108L1415.39,-222.108L1415.39,-215.037L1413.63,-216.801L1403.94,-207.108L1413.63,-197.416L1415.39,-199.18L1415.39,-192.108L1408.32,-192.108Z" style="fill:rgb(0,73,137);"/>
                    </g>
                    <g transform="matrix(1.42357,0,0,1.42357,-1524.84,127.754)">
                        <g transform="matrix(3.09082,0,0,3.09082,1356,254.978)">
                            <path d="M0.205,-0.262L0.205,0L0.064,0L0.064,-0.706L0.321,-0.706C0.404,-0.706 0.467,-0.686 0.509,-0.646C0.552,-0.606 0.573,-0.552 0.573,-0.483C0.573,-0.416 0.551,-0.362 0.507,-0.322C0.464,-0.282 0.402,-0.262 0.321,-0.262L0.205,-0.262ZM0.306,-0.375C0.389,-0.375 0.43,-0.411 0.43,-0.483C0.43,-0.518 0.42,-0.545 0.401,-0.564C0.382,-0.583 0.35,-0.592 0.306,-0.592L0.205,-0.592L0.205,-0.375L0.306,-0.375Z" style="fill:rgb(85,82,82);fill-rule:nonzero;"/>
                        </g>
                        <g transform="matrix(3.09082,0,0,3.09082,1358.08,254.978)">
                            <path d="M0.395,-0.716C0.461,-0.716 0.521,-0.701 0.575,-0.67C0.628,-0.639 0.671,-0.597 0.702,-0.542C0.733,-0.487 0.748,-0.424 0.748,-0.355C0.748,-0.286 0.733,-0.223 0.702,-0.168C0.671,-0.113 0.628,-0.07 0.575,-0.039C0.521,-0.008 0.461,0.007 0.395,0.007C0.329,0.007 0.269,-0.008 0.216,-0.039C0.162,-0.07 0.119,-0.113 0.089,-0.168C0.058,-0.223 0.042,-0.286 0.042,-0.355C0.042,-0.424 0.058,-0.487 0.089,-0.542C0.119,-0.597 0.162,-0.639 0.216,-0.67C0.269,-0.701 0.329,-0.716 0.395,-0.716ZM0.395,-0.586C0.354,-0.586 0.317,-0.577 0.286,-0.558C0.255,-0.539 0.23,-0.513 0.213,-0.477C0.195,-0.443 0.186,-0.402 0.186,-0.355C0.186,-0.308 0.195,-0.268 0.213,-0.233C0.23,-0.198 0.255,-0.171 0.286,-0.152C0.317,-0.133 0.354,-0.124 0.395,-0.124C0.436,-0.124 0.473,-0.133 0.504,-0.152C0.535,-0.171 0.56,-0.198 0.578,-0.233C0.595,-0.268 0.604,-0.308 0.604,-0.355C0.604,-0.402 0.595,-0.443 0.578,-0.477C0.56,-0.513 0.535,-0.539 0.504,-0.558C0.473,-0.577 0.436,-0.586 0.395,-0.586Z" style="fill:rgb(85,82,82);fill-rule:nonzero;"/>
                        </g>
                        <g transform="matrix(3.09082,0,0,3.09082,1360.73,254.978)">
                            <path d="M0.99,-0.706L0.817,0L0.643,0L0.511,-0.512L0.378,0L0.205,0L0.032,-0.706L0.185,-0.706L0.293,-0.159L0.433,-0.706L0.588,-0.706L0.729,-0.159L0.837,-0.706L0.99,-0.706Z" style="fill:rgb(85,82,82);fill-rule:nonzero;"/>
                        </g>
                        <g transform="matrix(3.09082,0,0,3.09082,1364.11,254.978)">
                            <path d="M0.205,-0.594L0.205,-0.411L0.455,-0.411L0.455,-0.303L0.205,-0.303L0.205,-0.113L0.485,-0.113L0.485,0L0.064,0L0.064,-0.706L0.485,-0.706L0.485,-0.594L0.205,-0.594Z" style="fill:rgb(85,82,82);fill-rule:nonzero;"/>
                        </g>
                        <g transform="matrix(3.09082,0,0,3.09082,1365.95,254.978)">
                            <path d="M0.432,0L0.267,-0.275L0.205,-0.275L0.205,0L0.064,0L0.064,-0.706L0.333,-0.706C0.415,-0.706 0.477,-0.686 0.521,-0.646C0.564,-0.606 0.585,-0.553 0.585,-0.488C0.585,-0.435 0.57,-0.39 0.541,-0.354C0.511,-0.318 0.468,-0.294 0.412,-0.282L0.588,0L0.432,0ZM0.205,-0.372L0.321,-0.372C0.402,-0.372 0.442,-0.408 0.442,-0.479C0.442,-0.513 0.432,-0.54 0.412,-0.559C0.393,-0.578 0.362,-0.587 0.321,-0.587L0.205,-0.587L0.205,-0.372Z" style="fill:rgb(85,82,82);fill-rule:nonzero;"/>
                        </g>
                        <g transform="matrix(3.09082,0,0,3.09082,1368.07,254.978)">
                            <path d="M0.205,-0.594L0.205,-0.411L0.455,-0.411L0.455,-0.303L0.205,-0.303L0.205,-0.113L0.485,-0.113L0.485,0L0.064,0L0.064,-0.706L0.485,-0.706L0.485,-0.594L0.205,-0.594Z" style="fill:rgb(85,82,82);fill-rule:nonzero;"/>
                        </g>
                        <g transform="matrix(3.09082,0,0,3.09082,1369.91,254.978)">
                            <path d="M0.685,-0.354C0.685,-0.284 0.67,-0.222 0.641,-0.169C0.612,-0.116 0.569,-0.074 0.514,-0.045C0.458,-0.015 0.392,0 0.315,0L0.064,0L0.064,-0.706L0.315,-0.706C0.392,-0.706 0.458,-0.692 0.514,-0.663C0.569,-0.633 0.612,-0.593 0.641,-0.54C0.67,-0.487 0.685,-0.425 0.685,-0.354ZM0.303,-0.126C0.379,-0.126 0.438,-0.146 0.48,-0.186C0.521,-0.226 0.542,-0.282 0.542,-0.354C0.542,-0.427 0.521,-0.483 0.48,-0.523C0.438,-0.563 0.379,-0.583 0.303,-0.583L0.205,-0.583L0.205,-0.126L0.303,-0.126Z" style="fill:rgb(85,82,82);fill-rule:nonzero;"/>
                        </g>
                        <g transform="matrix(3.09082,0,0,3.09082,1373.26,254.978)">
                            <path d="M0.458,-0.364C0.501,-0.355 0.535,-0.335 0.561,-0.304C0.586,-0.272 0.599,-0.235 0.599,-0.192C0.599,-0.133 0.579,-0.086 0.54,-0.051C0.5,-0.017 0.442,0 0.367,0L0.064,0L0.064,-0.706L0.361,-0.706C0.432,-0.706 0.487,-0.69 0.526,-0.659C0.564,-0.628 0.583,-0.584 0.583,-0.527C0.583,-0.483 0.572,-0.447 0.549,-0.419C0.526,-0.391 0.495,-0.373 0.458,-0.364ZM0.205,-0.41L0.332,-0.41C0.367,-0.41 0.394,-0.418 0.412,-0.434C0.431,-0.449 0.44,-0.472 0.44,-0.501C0.44,-0.53 0.431,-0.553 0.413,-0.569C0.395,-0.585 0.367,-0.593 0.33,-0.593L0.205,-0.593L0.205,-0.41ZM0.339,-0.115C0.376,-0.115 0.405,-0.123 0.425,-0.14C0.445,-0.156 0.455,-0.18 0.455,-0.211C0.455,-0.242 0.445,-0.267 0.425,-0.283C0.404,-0.301 0.375,-0.309 0.338,-0.309L0.205,-0.309L0.205,-0.115L0.339,-0.115Z" style="fill:rgb(85,82,82);fill-rule:nonzero;"/>
                        </g>
                        <g transform="matrix(3.09082,0,0,3.09082,1375.44,254.978)">
                            <path d="M0.633,-0.706L0.394,-0.247L0.394,0L0.252,0L0.252,-0.247L0.012,-0.706L0.174,-0.706L0.324,-0.397L0.474,-0.706L0.633,-0.706Z" style="fill:rgb(85,82,82);fill-rule:nonzero;"/>
                        </g>
                    </g>
                </g>
            </g>
        </g>
    </g>
</svg>
