<svg xmlns="http://www.w3.org/2000/svg" xmlns:xlink="http://www.w3.org/1999/xlink" viewBox="0 0 287.05 92.15">
	<defs>
		<style>.cls-1{fill:none;}.cls-2{clip-path:url(#clip-path);}.cls-3{fill:#92257f;}.cls-4{fill:#2b2d68;}.cls-5{clip-path:url(#clip-path-2);}</style>
		<clipPath id="clip-path" transform="translate(280 -118)">
			<rect class="cls-1" x="-280" y="118" width="287.05" height="92.15"></rect>
		</clipPath>
		<clipPath id="clip-path-2" transform="translate(280 -118)">
			<rect class="cls-1" x="-280" y="118" width="287.05" height="92.15"></rect>
		</clipPath>
	</defs>
	<g id="Layer_2" data-name="Layer 2">
		<g id="Layer_1-2" data-name="Layer 1">
			<g id="Artwork_175" data-name="Artwork 175">
				<g class="cls-2">
					<polygon class="cls-3" points="55.4 0 41.91 18.55 28.44 0 28.44 18.52 41.91 37.06 55.4 18.52 55.4 0"></polygon>
					<polygon class="cls-3" points="28.45 73.64 28.45 92.15 41.91 73.59 55.4 92.15 55.4 73.64 41.91 55.08 28.45 73.64"></polygon>
					<polygon class="cls-4" points="65.78 18.58 83.85 18.58 64.06 46.03 83.85 73.52 65.78 73.52 46 46.03 65.78 18.58"></polygon>
					<polygon class="cls-4" points="0 18.58 19.78 46.06 0 73.52 18.07 73.52 37.85 46.06 18.07 18.58 0 18.58"></polygon>
					<g class="cls-5">
						<path class="cls-4" d="M-142.83,154.23a19,19,0,0,0-1.27-7,14.42,14.42,0,0,0-3.94-5.58,18.73,18.73,0,0,0-6.79-3.66,32.32,32.32,0,0,0-9.8-1.32h-18.66v54.54h11.43V172.43h7.23a31.28,31.28,0,0,0,9.63-1.34,19,19,0,0,0,6.81-3.74,14.87,14.87,0,0,0,4-5.75,19.69,19.69,0,0,0,1.33-7.37m-11.45,0a9.57,9.57,0,0,1-2.5,7c-1.66,1.71-4.27,2.56-7.85,2.56h-7.23V145.21h7.23a14.94,14.94,0,0,1,4.6.64,8.49,8.49,0,0,1,3.22,1.83,7.26,7.26,0,0,1,1.9,2.85,10.45,10.45,0,0,1,.63,3.7" transform="translate(280 -118)"></path>
						<polygon class="cls-4" points="175.81 27.47 175.81 18.64 140.64 18.64 140.64 73.18 175.81 73.18 175.81 64.35 152.13 64.35 152.13 50.03 170.55 50.03 170.55 41.49 152.13 41.49 152.13 27.47 175.81 27.47"></polygon>
						<path class="cls-4" d="M-66.9,162.62l17.55-26H-60.28a2.37,2.37,0,0,0-1.34.36,3.29,3.29,0,0,0-1,1.1l-10.66,17.22c-.2.33-.38.65-.53,1s-.29.62-.42.92l-11.88-19.29a2.76,2.76,0,0,0-.95-1,3.52,3.52,0,0,0-1.67-.3h-11.42l17.39,26.46-18.07,28.08h10.65a2.49,2.49,0,0,0,1.7-.58,7.55,7.55,0,0,0,1.16-1.3L-76,170.77a5.08,5.08,0,0,0,.4-.73c.11-.26.23-.53.36-.8l12,20.06a4.53,4.53,0,0,0,1.12,1.32,2.85,2.85,0,0,0,1.85.56H-48.9Z" transform="translate(280 -118)"></path>
						<path class="cls-4" d="M7.05,191.18l-21.54-54.54H-26.17l-21.58,54.54h8.94a3.66,3.66,0,0,0,2.4-.77,4.29,4.29,0,0,0,1.33-1.7l3.73-10.42h22l3.73,10.42a4.26,4.26,0,0,0,1.39,1.78,4,4,0,0,0,2.42.69Zm-19.18-20.71h-16.4l5.93-16.61c.36-.88.73-1.91,1.13-3.1s.77-2.49,1.12-3.9c.35,1.38.73,2.66,1.12,3.84s.77,2.21,1.12,3.08Z" transform="translate(280 -118)"></path>
					</g>
				</g>
			</g>
		</g>
	</g>
</svg>