<svg xmlns="http://www.w3.org/2000/svg" viewBox="0 0 423.2 90.01"><defs><style>.cls-1{fill:#323232;}.cls-2{fill:#18cdb6;}</style></defs><title>Logo Horizontal 1</title><g id="Layer_2" data-name="Layer 2"><g id="Layer_1-2" data-name="Layer 1"><path class="cls-1" d="M125,73.21c-9.9,0-17.3-5.1-17.3-10.6V56.5h.5c2.9,2.7,9.8,5.1,16.2,5.1,6.6,0,9.8-1.9,9.8-5.9,0-3.1-1.9-4.6-11.2-5.9-11.4-1.6-16.9-6.1-16.9-14.3,0-10.1,9.1-18.7,22.9-18.7,12.2,0,17.2,6.3,17.2,11.5v5.1h-.5c-2.8-2.8-9-5-15.4-5-8.2,0-10.8,2.5-10.8,6,0,2.7,1.6,3.8,10.8,5.3,11.2,1.8,17.2,6.7,17.2,15.3C147.52,66.4,139.52,73.21,125,73.21Z"/><path class="cls-1" d="M163.41,89.51c-5,0-9.4-3.3-9.4-8.3v-2.6l7.6-.5c4.9-.3,6.6-2.3,9.5-9.9C164,57.5,153.82,30.7,152,18h7.1a7.83,7.83,0,0,1,7.8,6.3,116.06,116.06,0,0,0,10.8,31.1c4.4-10.1,9.3-26.4,10.5-37.4H194c4.3,0,6.3,1.9,6.3,6.3,0,5.7-9.4,30.3-11.9,36.1C178.42,84,173.12,89.51,163.41,89.51Z"/><path class="cls-1" d="M280.92,72c-7.3,0-10.2-3.4-10.2-9.8V41.4c0-8.9-4-12.7-9.9-12.7-5.4,0-9.1,3.8-9.1,11.2V72h-3.6c-5.9,0-9.8-3.4-9.8-9.8V41.4c0-8.9-4.1-12.7-10-12.7-5.2,0-9.1,4.1-9.1,11.5V72h-3.6c-5.5,0-9.7-3.6-9.7-9.8V41.3c0-14.7,7.7-24.5,24-24.5a19.86,19.86,0,0,1,16.4,8.4,18.34,18.34,0,0,1,15.5-8.4c12.4,0,22.4,7.5,22.4,22.8V72Z"/><path class="cls-1" d="M320.91,73.21a15.77,15.77,0,0,1-13.6-8V89h-4.2a9.17,9.17,0,0,1-9.4-9.3V47.1c0-17.9,8-30.3,27-30.3,14.3,0,24.5,13,24.5,26.6C345.22,60.7,336.62,73.21,320.91,73.21Zm-2.3-44.5c-7.4,0-11.5,6.4-11.5,15.7,0,10.8,5.3,16.9,13.3,16.9,6.5,0,11-5.8,11-14.4C331.42,34.2,327.22,28.7,318.62,28.7Z"/><path class="cls-1" d="M376.51,61.5c-6.3,0-9.1-1.7-9.1-7.1V9c0-5.1-2.9-9-9.6-9H354V55.7c0,10.9,6,16.8,17.1,16.8,5.9,0,9-2.3,9-8.1V61.5Z"/><path class="cls-1" d="M407,61.5c-5.9,0-8.2-1.7-8.2-7.1V29.2c0-6.8-3.6-10-9.6-10h-3.8V55.7c0,10.9,5.7,16.8,16.1,16.8,5.7,0,8-2.3,8-8.1V61.5ZM392,0a6.94,6.94,0,0,0-6.93,6.93A7,7,0,0,0,392,14a7.09,7.09,0,0,0,7-7A7,7,0,0,0,392,0Z"/><path class="cls-2" d="M24.47,76.31a45,45,0,0,0,28.66-.92,25.93,25.93,0,0,0,5.1-2.55c7.69-5,10.72-15.34,8-23.95-2.38-7.69-11-12.34-21-11.32A1.34,1.34,0,0,0,44.1,38.8c0,.43-.07.88-.1,1.35a1.34,1.34,0,0,1-2,1.08l-11.28-6a1.3,1.3,0,0,1-.48-.43A1.33,1.33,0,0,1,30.53,33l9.38-7.83a1.33,1.33,0,0,1,2.08.5c.37.87.63,1.48.73,1.7a42.28,42.28,0,0,1,9.86.29c1.37.18,2.68.41,3.91.66l1.57.35C69.55,31.62,78.59,40.9,80.24,52.94a28.77,28.77,0,0,1-7.45,23.38l0,0a45.33,45.33,0,0,1-3.88,3.56,44.76,44.76,0,0,1-22.36,9.71A45.79,45.79,0,0,1,6.28,74.24,26,26,0,0,1,0,59.87c-.13-1.6,1-2.75,2.12-1.08,1,1.47,2,2.95,3,4.35A38.21,38.21,0,0,0,24.47,76.31Z"/><path class="cls-2" d="M56.44,13.7a45,45,0,0,0-28.66.92,25.93,25.93,0,0,0-5.1,2.55c-7.69,5-10.72,15.34-8,23.95,2.38,7.69,11,12.34,21,11.32a1.34,1.34,0,0,0,1.21-1.23c0-.43.07-.88.1-1.35a1.34,1.34,0,0,1,2-1.08l11.28,6a1.3,1.3,0,0,1,.48.43A1.33,1.33,0,0,1,50.38,57L41,64.82a1.33,1.33,0,0,1-2.08-.5c-.37-.87-.63-1.48-.73-1.7a42.28,42.28,0,0,1-9.86-.29c-1.37-.18-2.68-.41-3.91-.66l-1.57-.35C11.37,58.38,2.32,49.11.67,37.07A28.77,28.77,0,0,1,8.13,13.69l0,0A45.33,45.33,0,0,1,12,10.1,44.76,44.76,0,0,1,34.39.39,45.79,45.79,0,0,1,74.63,15.77,26,26,0,0,1,80.9,30.13c.13,1.6-1,2.75-2.12,1.08-1-1.47-2-2.95-3-4.35A38.21,38.21,0,0,0,56.44,13.7Z"/><path class="cls-1" d="M412.11,7.16V.85h-2.36V0h5.67V.85h-2.37V7.16Z"/><path class="cls-1" d="M416.36,7.16V0h1.43l1.69,5.07q.23.71.34,1.06.12-.39.38-1.15l1.71-5h1.27V7.16h-.91v-6l-2.08,6h-.85l-2.07-6.09V7.16Z"/></g></g></svg>