<?xml version="1.0" encoding="utf-8"?>
<svg version="1.1" xmlns="http://www.w3.org/2000/svg" xmlns:xlink="http://www.w3.org/1999/xlink" x="0px" y="0px"
	 viewBox="0 0 241.2 177.4" style="enable-background:new 0 0 241.2 177.4;" xml:space="preserve">
<style type="text/css">
	.st0{fill:#FFFFFF;}
	.st1{fill:#8CC641;}
	.st2{fill:#FCB116;}
	.st3{fill:#1B3B6A;}
	.st4{fill:#F15A29;}
</style>
<g id="Layer_5">
	<g>
		<path id="Cog_x5F_04_1_"  class="st1" d="M10.3,87.9c1.5,1.1,2.3,3,2.1,4c-0.3,1.1-0.8,4-0.8,4
			s-1.5,0.3-3.3,0.6l-3.1,0.6c-1.8,0.4-3.2,2.2-3.2,4v0.2c0.1,1.9,1.6,3.6,3.4,3.8l3.1,0.4c1.9,0.2,3.3,0.5,3.3,0.5s0.2,0.9,0.5,2
			c0.2,1.1,0.2,4.9-1.2,6.2l-2.3,2.1C7.4,117.7,7,120,8,121.6l0.1,0.2c1,1.5,3.2,2.3,4.9,1.6l2.9-1.1c1.7-0.6,3.1-1.2,3.1-1.2
			s0.6,0.6,1.5,1.5c0.8,0.8,3.1,2.8,3.1,2.8s-0.5,1.5-1.1,3.2l-1,3c-0.6,1.8,0.2,3.9,1.9,4.8l0.2,0.1c1.6,0.9,3.9,0.4,5-1.1l1.9-2.4
			c1.1-1.5,2.1-2.7,2.1-2.7s0.9,0.2,1.9,0.6c1.1,0.3,4,0.8,4,0.9c0,0,0.3,1.5,0.6,3.3l0.6,3.1c0.4,1.8,2.2,3.2,4,3.2h0.2
			c1.9-0.1,3.6-1.6,3.8-3.4l0.4-3.1c0.2-1.9,0.5-3.3,0.5-3.3s0.9-0.2,2-0.5c1.1-0.2,4.9-0.2,6.2,1.2l2.1,2.3
			c1.2,1.4,3.5,1.7,5.1,0.7l0.2-0.1c1.5-1,2.3-3.2,1.6-4.9l-1.1-2.9c-0.6-1.7-0.6-3.7,0.2-4.5c0.8-0.8,4.2-2.6,5.9-2l3,1
			c1.8,0.6,3.9-0.2,4.8-1.9l0.1-0.2c0.9-1.6,0.4-3.9-1.1-5l-2.4-1.9c-1.5-1.1-2.3-3-2-4c0.3-1.1,2.3-4.4,4.1-4.8l3.1-0.6
			c1.8-0.4,3.2-2.2,3.2-4v-0.2c-0.1-1.9-1.6-3.6-3.4-3.8l-3.1-0.4c-1.9-0.2-3.6-1.4-3.8-2.5c-0.2-1.1-0.2-4.9,1.2-6.2L77,84
			c1.4-1.2,1.7-3.5,0.7-5.1l-0.1-0.1c-1-1.5-3.2-2.3-4.9-1.6l-2.9,1.1c-1.7,0.6-3.7,0.6-4.5-0.2c-0.8-0.8-2.6-4.2-2-5.9l1-3
			c0.6-1.8-0.2-3.9-1.9-4.8l-0.2-0.1c-1.6-0.9-3.9-0.4-5,1.1l-1.9,2.4c-1.1,1.5-3,2.3-4,2c-1.1-0.3-4-0.8-4-0.8s-0.3-1.5-0.6-3.3
			l-0.6-3.1c-0.4-1.8-2.2-3.2-4-3.2h-0.2c-1.9,0.1-3.6,1.6-3.8,3.4l-0.4,3.1c-0.2,1.9-0.5,3.3-0.5,3.3s-0.9,0.2-2,0.5
			C33.8,70,31.1,71,31.1,71s-1-1.1-2.3-2.5l-2.1-2.3c-1.2-1.4-3.5-1.7-5.1-0.7l-0.2,0.1c-1.5,1-2.3,3.2-1.6,4.9l1.1,2.9
			c0.6,1.7,1.2,3.1,1.2,3.1s-0.6,0.6-1.5,1.5S18,80.9,18,80.9s-1.5-0.5-3.2-1.1l-3-1C10,78.3,7.9,79.1,7,80.7L7,80.9
			c-0.9,1.6-0.4,3.9,1.1,5L10.3,87.9z M41.9,76.1c0.2,0,0.5,0,0.7,0c13,0,23.7,10.3,24.1,23.4c0.4,13.3-10,24.4-23.4,24.8
			c-0.2,0-0.5,0-0.8,0c-13,0-23.7-10.3-24.1-23.4C18.2,87.6,28.7,76.5,41.9,76.1z"/> 
			
	</g>
	<animateTransform attributeName="transform"
                    	
                    type="rotate"
                    from="1 42.86 100.277"
                    to="-359 42.86 100.277"
                    dur="10s"
                    repeatCount="indefinite"/>
</g>
<g id="Layer_4">
	<g>
		<path id="Cog_x5F_03_1_" class="st2" d="M164.1,102c1.5,1.2,2.4,3.1,2.2,4.1
			c-0.3,1.1-0.8,4.1-0.8,4.1s-1.5,0.3-3.4,0.7l-3.1,0.7c-1.8,0.4-3.3,2.2-3.2,4.1v0.2c0.1,1.9,1.7,3.6,3.5,3.9l3.1,0.4
			c1.9,0.2,3.4,0.5,3.4,0.5s0.2,0.9,0.5,2.1c0.2,1.2,0.2,5-1.2,6.3l-2.4,2.2c-1.4,1.2-1.7,3.6-0.7,5.2l0.1,0.2c1,1.6,3.2,2.3,5,1.7
			l3-1.2c1.7-0.7,3.1-1.2,3.1-1.2s0.7,0.7,1.5,1.5c0.8,0.8,3.1,2.8,3.1,2.8s-0.5,1.5-1.1,3.2l-1,3.1c-0.6,1.8,0.2,4,2,4.9l0.2,0.1
			c1.7,0.9,4,0.4,5.1-1.1l2-2.5c1.2-1.5,2.2-2.7,2.2-2.7s0.9,0.2,2,0.6c1.1,0.3,4.1,0.8,4.1,0.9c0,0,0.3,1.5,0.7,3.4l0.7,3.1
			c0.4,1.8,2.2,3.3,4.1,3.2h0.2c1.9-0.1,3.6-1.7,3.9-3.5l0.4-3.1c0.2-1.9,0.5-3.4,0.5-3.4s0.9-0.2,2.1-0.5c1.2-0.2,5-0.2,6.3,1.2
			l2.2,2.4c1.2,1.4,3.6,1.7,5.2,0.7l0.2-0.1c1.6-1,2.3-3.2,1.7-5l-1.2-3c-0.7-1.7-0.6-3.8,0.2-4.6s4.3-2.6,6-2.1l3.1,1
			c1.8,0.6,4-0.2,4.9-2l0.1-0.2c0.9-1.7,0.4-4-1.1-5.1l-2.5-2c-1.5-1.2-2.4-3.1-2.1-4.1s2.4-4.5,4.2-4.9l3.1-0.7
			c1.8-0.4,3.3-2.2,3.2-4.1v-0.2c-0.1-1.9-1.7-3.6-3.5-3.9l-3.1-0.4c-1.9-0.2-3.6-1.4-3.9-2.6c-0.2-1.2-0.2-5,1.2-6.3l2.4-2.2
			c1.4-1.2,1.7-3.6,0.7-5.2l-0.1-0.1c-1-1.6-3.2-2.3-5-1.7l-3,1.2c-1.7,0.7-3.8,0.6-4.6-0.2s-2.6-4.3-2.1-6l1-3.1
			c0.6-1.8-0.2-4-1.9-4.9l-0.2-0.1c-1.7-0.9-4-0.4-5.1,1.1l-2,2.5c-1.2,1.5-3.1,2.4-4.1,2.1s-4.1-0.8-4.1-0.8s-0.3-1.5-0.7-3.4
			l-0.7-3.1c-0.4-1.8-2.2-3.3-4.1-3.2h-0.2c-1.9,0.1-3.6,1.7-3.9,3.5l-0.4,3.1c-0.2,1.9-0.5,3.4-0.5,3.4s-0.9,0.2-2.1,0.5
			c-1.2,0.2-4,1.3-4,1.3s-1-1.2-2.3-2.6l-2.2-2.4c-1.2-1.4-3.6-1.7-5.2-0.7l-0.2,0.1c-1.6,1-2.3,3.2-1.7,5l1.2,3
			c0.7,1.7,1.2,3.1,1.2,3.1s-0.7,0.7-1.5,1.5c-0.8,0.8-2.8,3.1-2.8,3.1s-1.5-0.5-3.2-1.1l-3.1-1c-1.8-0.6-4,0.2-4.9,1.9l-0.1,0.2
			c-0.9,1.7-0.4,4,1.1,5.1L164.1,102z M196.5,89.9c0.2,0,0.5,0,0.7,0c13.2,0,24.2,10.5,24.6,23.9c0.4,13.6-10.3,25-23.9,25.4
			c-0.2,0-0.5,0-0.8,0c-13.2,0-24.2-10.5-24.6-23.9C172.3,101.6,182.9,90.3,196.5,89.9z"/>
	</g>
	<animateTransform attributeName="transform"
                    	
                    type="rotate"
                    from="-2.5 197.441 114.564"
                    to="-362.5 197.441 114.564"
                    dur="10s"
                    repeatCount="indefinite"/>
</g>
<g id="Layer_3">
	<g>
		<path id="Cog_x5F_02_1_"  class="st3" d="M80.6,115.6c1.6,1.3,2.6,3.4,2.4,4.5
			c-0.4,1.2-0.9,4.5-0.9,4.5s-1.6,0.4-3.7,0.7l-3.4,0.7c-2,0.5-3.6,2.4-3.5,4.5v0.2c0.1,2.1,1.8,4,3.8,4.3l3.4,0.5
			c2.1,0.3,3.7,0.5,3.7,0.5s0.3,1,0.5,2.3c0.3,1.3,0.2,5.5-1.4,6.9l-2.6,2.4c-1.5,1.4-1.9,3.9-0.8,5.7l0.1,0.2
			c1.1,1.7,3.5,2.5,5.4,1.8l3.3-1.3c1.9-0.7,3.4-1.4,3.4-1.4s0.7,0.7,1.6,1.6c0.9,0.9,3.4,3.1,3.4,3.1s-0.5,1.6-1.2,3.5l-1.1,3.4
			c-0.6,2,0.3,4.3,2.2,5.3l0.2,0.1c1.8,1,4.3,0.5,5.6-1.2l2.2-2.7c1.3-1.6,2.4-3,2.4-3s1,0.3,2.2,0.6c1.2,0.4,4.5,0.9,4.5,1
			c0,0,0.4,1.6,0.7,3.7l0.7,3.4c0.5,2,2.4,3.6,4.5,3.5h0.2c2.1-0.1,4-1.8,4.3-3.8l0.5-3.4c0.3-2.1,0.5-3.7,0.5-3.7s1-0.3,2.3-0.5
			c1.3-0.3,5.5-0.2,6.9,1.4l2.4,2.6c1.4,1.5,3.9,1.9,5.7,0.8l0.2-0.1c1.7-1.1,2.5-3.5,1.8-5.4l-1.3-3.3c-0.7-1.9-0.6-4.2,0.3-5.1
			c0.9-0.9,4.7-2.9,6.6-2.3l3.4,1.1c2,0.6,4.3-0.3,5.3-2.2l0.1-0.2c1-1.8,0.5-4.3-1.2-5.6l-2.7-2.2c-1.6-1.3-2.6-3.4-2.3-4.5
			c0.4-1.2,2.6-4.9,4.6-5.3l3.4-0.7c2-0.5,3.6-2.4,3.5-4.5V128c-0.1-2.1-1.8-4-3.8-4.3l-3.4-0.5c-2.1-0.3-4-1.5-4.3-2.8
			c-0.3-1.3-0.2-5.5,1.4-6.9l2.6-2.4c1.5-1.4,1.9-3.9,0.8-5.7l-0.1-0.1c-1.1-1.7-3.5-2.5-5.4-1.8l-3.3,1.3c-1.9,0.7-4.2,0.6-5.1-0.3
			c-0.9-0.9-2.9-4.7-2.3-6.6l1.1-3.4c0.6-2-0.3-4.3-2.1-5.3l-0.2-0.1c-1.8-1-4.3-0.5-5.6,1.2l-2.2,2.7c-1.3,1.6-3.4,2.6-4.5,2.3
			c-1.2-0.4-4.5-0.9-4.5-0.9s-0.4-1.6-0.7-3.7l-0.7-3.4c-0.5-2-2.4-3.6-4.5-3.5h-0.2c-2.1,0.1-4,1.8-4.3,3.8L111,91
			c-0.3,2.1-0.5,3.7-0.5,3.7s-1,0.3-2.3,0.5c-1.3,0.3-4.3,1.4-4.3,1.4s-1.1-1.3-2.5-2.8L99,91.3c-1.4-1.5-3.9-1.9-5.7-0.8l-0.2,0.1
			c-1.7,1.1-2.5,3.5-1.8,5.4l1.3,3.3c0.7,1.9,1.4,3.4,1.4,3.4s-0.7,0.7-1.6,1.6s-3.1,3.4-3.1,3.4s-1.6-0.5-3.5-1.2l-3.4-1.1
			c-2-0.6-4.3,0.3-5.3,2.1l-0.1,0.2c-1,1.8-0.5,4.3,1.2,5.6L80.6,115.6z M116,102.4c0.3,0,0.5,0,0.8,0c14.5,0,26.5,11.5,27,26.2
			c0.5,14.9-11.2,27.4-26.2,27.8c-0.3,0-0.5,0-0.9,0c-14.5,0-26.5-11.5-27-26.2C89.5,115.3,101.1,102.9,116,102.4z"/>
	</g>
	<animateTransform attributeName="transform"
                    	
                    type="rotate"
                    from="0 117.046 129.461"
                    to="360 117.046 129.461"
                    dur="10s"
                    repeatCount="indefinite"/>
</g>
<g id="Layer_2">
	<g>
		<path id="Cog_x5F_01_x5F_2" class="st0" d="M166.5,62.7l4-0.8c3.6-0.8,6.3-4.3,6.1-7.9l0-0.3c-0.2-3.7-3.1-6.9-6.7-7.4l-4-0.5
			c-1.5-0.2-2.5-1-2.7-1.3c-0.2-1.3,0.1-4.7,0.8-5.4l3-2.7c2.7-2.4,3.4-6.8,1.5-9.9l-0.2-0.3l-0.2-0.2c-2-2.9-6-4.1-9.3-2.9
			l-3.8,1.5c-1.4,0.5-2.7,0.4-3.1,0.2c-0.8-0.9-2.2-4-1.9-4.9l1.3-3.9c1.1-3.5-0.4-7.5-3.7-9.3l-0.1-0.1c-3.2-1.8-7.6-0.9-9.8,2
			l-2.5,3.2c-0.8,1.1-2.1,1.7-2.5,1.7c-0.9-0.3-2.5-0.6-3.7-0.8c-0.1-0.7-0.3-1.6-0.5-2.6l-0.8-4c-0.8-3.6-4.3-6.2-7.9-6.1l-0.3,0
			c-3.7,0.2-6.9,3.1-7.4,6.7l-0.5,4c-0.1,0.9-0.2,1.8-0.4,2.5c-0.3,0.1-0.5,0.1-0.8,0.2c-0.9,0.2-2.5,0.7-3.7,1.2
			c-0.5-0.5-1.1-1.2-1.8-1.9l-2.7-3c-2.4-2.7-6.7-3.3-9.8-1.5l-0.4,0.2c-3.1,1.9-4.4,6.1-3.1,9.5l1.5,3.8c0.3,0.9,0.7,1.7,0.9,2.4
			l-0.7,0.7c-0.6,0.6-1.7,1.8-2.5,2.8l-6.3-2.1c-3.5-1.1-7.5,0.4-9.3,3.7l-0.1,0.1c-1.8,3.2-0.9,7.5,2,9.8l2.9,2.6l0.1,0.1
			c1.1,0.9,1.8,2.2,1.8,2.6c-0.3,0.9-0.6,2.4-0.8,3.6c-0.7,0.1-1.6,0.3-2.6,0.5l-4,0.8C68,50,65.3,53.4,65.5,57l0,0.3
			c0.2,3.7,3.1,6.9,6.7,7.4l4,0.5c0.9,0.1,1.8,0.2,2.5,0.4c0.1,0.3,0.1,0.6,0.2,0.8c0.3,1.2-0.1,4.8-0.8,5.5l-3,2.7
			c-2.7,2.4-3.3,6.7-1.5,9.8l0.2,0.4c1.9,3.1,6.1,4.4,9.5,3.1l3.8-1.5c0.9-0.3,1.8-0.7,2.4-0.9l0.7,0.7c0.6,0.6,1.8,1.7,2.8,2.5
			l-2.1,6.3c-1.1,3.6,0.5,7.6,3.8,9.3l0.1,0.1c3.2,1.8,7.6,0.9,9.8-2l2.5-3.2c0.6-0.8,1.2-1.5,1.6-2.1c0.2,0.1,0.5,0.2,0.8,0.2
			c0.8,0.3,2.1,0.5,3.7,0.8c0,0,0,0,0.1,0c0.1,0.7,0.3,1.6,0.5,2.7l0.8,4c0.8,3.5,4.1,6.1,7.6,6.1c0.1,0,0.2,0,0.2,0l0.3,0
			c3.7-0.2,6.9-3.1,7.4-6.7l0.5-4c0.1-0.9,0.2-1.8,0.4-2.5c0.3-0.1,0.6-0.1,0.8-0.2c1.2-0.3,4.8,0.1,5.5,0.8l2.7,3
			c2.4,2.7,6.7,3.3,9.8,1.5l0.4-0.2c3.1-1.9,4.4-6.1,3.1-9.5l-1.5-3.8c-0.5-1.4-0.4-2.7-0.2-3.1c0.9-0.8,4-2.2,4.9-1.9l3.9,1.3
			c3.6,1.1,7.6-0.5,9.3-3.8l0.1-0.1c1.8-3.2,0.9-7.6-2-9.8l-3.2-2.5c-1.1-0.8-1.7-2-1.7-2.5C163.5,65.8,165.6,63,166.5,62.7z"/>
		<path id="Cog_x5F_01_x5F_1" class="st0" d="M141.7,75.2c-5.2,5.6-12.4,8.8-19.9,9h-1C105.1,84.2,92.5,72,92,56.4
			c-0.3-15.8,12.2-29.1,27.9-29.5h0.9c15.6,0,28.2,12.2,28.7,27.8C149.7,62.3,146.9,69.6,141.7,75.2z"/>
		<path id="Cog_x5F_01_1_"  class="st4" d="M78.8,39.6c1.9,1.5,3,3.9,2.7,5.2c-0.4,1.4-1,5.2-1,5.2
			s-1.9,0.4-4.3,0.8l-4,0.8c-2.3,0.5-4.2,2.8-4.1,5.2v0.2c0.1,2.4,2.1,4.6,4.4,4.9l4,0.5c2.4,0.3,4.3,0.6,4.3,0.6s0.3,1.2,0.6,2.6
			c0.3,1.5,0.2,6.4-1.6,8l-3,2.7c-1.8,1.6-2.2,4.5-0.9,6.6l0.1,0.2c1.3,2,4.1,2.9,6.3,2.1l3.8-1.5c2.2-0.8,4-1.6,4-1.6
			s0.8,0.8,1.9,1.9c1,1,4,3.6,4,3.6s-0.6,1.9-1.4,4.1l-1.3,3.9c-0.7,2.3,0.3,5,2.5,6.2l0.2,0.1c2.1,1.2,5,0.5,6.5-1.4l2.5-3.1
			c1.5-1.9,2.7-3.5,2.7-3.5s1.2,0.3,2.5,0.7c1.4,0.4,5.2,1,5.2,1.2c0,0,0.4,1.9,0.8,4.3l0.8,4c0.5,2.3,2.8,4.2,5.2,4.1h0.2
			c2.4-0.1,4.6-2.1,4.9-4.4l0.5-4c0.3-2.4,0.6-4.3,0.6-4.3s1.2-0.3,2.6-0.6c1.5-0.3,6.4-0.2,8,1.6l2.7,3c1.6,1.8,4.5,2.2,6.6,0.9
			l0.2-0.1c2-1.3,2.9-4.1,2.1-6.3l-1.5-3.8c-0.8-2.2-0.7-4.8,0.3-5.9s5.5-3.4,7.7-2.6l3.9,1.3c2.3,0.7,5-0.3,6.2-2.5l0.1-0.2
			c1.2-2.1,0.5-5-1.4-6.5l-3.1-2.5c-1.9-1.5-3-3.9-2.6-5.2c0.4-1.4,3-5.7,5.4-6.2l4-0.8c2.3-0.5,4.2-2.8,4.1-5.2v-0.2
			c-0.1-2.4-2.1-4.6-4.4-4.9l-4-0.5c-2.4-0.3-4.6-1.8-4.9-3.3c-0.3-1.5-0.2-6.4,1.6-8l3-2.7c1.8-1.6,2.2-4.5,0.9-6.6l-0.1-0.1
			c-1.3-2-4.1-2.9-6.3-2.1l-3.8,1.5c-2.2,0.8-4.8,0.7-5.9-0.3c-1-1-3.4-5.5-2.6-7.7l1.3-3.9c0.7-2.3-0.3-5-2.4-6.2l-0.2-0.1
			c-2.1-1.2-5-0.5-6.5,1.4l-2.5,3.1c-1.5,1.9-3.9,3-5.2,2.6s-5.2-1-5.2-1s-0.4-1.9-0.8-4.3l-0.8-4c-0.5-2.3-2.8-4.2-5.2-4.1h-0.2
			c-2.4,0.1-4.6,2.1-4.9,4.4l-0.5,4c-0.3,2.4-0.6,4.3-0.6,4.3s-1.2,0.3-2.6,0.6c-1.5,0.3-5,1.7-5,1.7s-1.3-1.5-2.9-3.3l-2.7-3
			c-1.6-1.8-4.5-2.2-6.6-0.9l-0.2,0.1c-2,1.3-2.9,4.1-2.1,6.3l1.5,3.8c0.8,2.2,1.6,4,1.6,4s-0.8,0.8-1.9,1.9c-1,1-3.6,4-3.6,4
			s-1.9-0.6-4.1-1.4l-3.9-1.3c-2.3-0.7-5,0.3-6.2,2.4l-0.1,0.2c-1.2,2.1-0.5,5,1.4,6.5L78.8,39.6z M119.8,24.2c0.3,0,0.6,0,0.9,0
			c16.8,0,30.8,13.3,31.3,30.3c0.5,17.2-13,31.7-30.3,32.2c-0.3,0-0.6,0-1,0c-16.8,0-30.8-13.3-31.3-30.3
			C89.1,39.2,102.6,24.8,119.8,24.2z"/>
	</g>
	<animateTransform attributeName="transform"
                    	
                    type="rotate"
                    from="0 121.043 55.577"
                    to="-360 121.043 55.577"
                    dur="15s"
                    repeatCount="indefinite"/>
</g>
</svg>
