<?xml version="1.0" encoding="UTF-8" standalone="no"?>
<svg
   xmlns:dc="http://purl.org/dc/elements/1.1/"
   xmlns:cc="http://creativecommons.org/ns#"
   xmlns:rdf="http://www.w3.org/1999/02/22-rdf-syntax-ns#"
   xmlns:svg="http://www.w3.org/2000/svg"
   xmlns="http://www.w3.org/2000/svg"
   xmlns:sodipodi="http://sodipodi.sourceforge.net/DTD/sodipodi-0.dtd"
   xmlns:inkscape="http://www.inkscape.org/namespaces/inkscape"
   id="Layer_1"
   data-name="Layer 1"
   viewBox="0 0 451.12139 176.64"
   version="1.1"
   sodipodi:docname="Colour Side by Side designcrowd_105592_3871877_565497_sourcefile.svg"
   inkscape:version="0.92.1 r15371"
   width="451.1214"
   height="176.64">
  <metadata
     id="metadata59">
    <rdf:RDF>
      <cc:Work
         rdf:about="">
        <dc:format>image/svg+xml</dc:format>
        <dc:type
           rdf:resource="http://purl.org/dc/dcmitype/StillImage" />
        <dc:title>designcrowd_105592_3871877_565497_sourcefile</dc:title>
      </cc:Work>
    </rdf:RDF>
  </metadata>
  <sodipodi:namedview
     pagecolor="#ffffff"
     bordercolor="#666666"
     borderopacity="1"
     objecttolerance="15"
     gridtolerance="15"
     guidetolerance="15"
     inkscape:pageopacity="0"
     inkscape:pageshadow="2"
     inkscape:window-width="2560"
     inkscape:window-height="1377"
     id="namedview57"
     showgrid="false"
     showguides="true"
     inkscape:guide-bbox="true"
     inkscape:zoom="1.4142136"
     inkscape:cx="379.39052"
     inkscape:cy="-17.436435"
     inkscape:window-x="2872"
     inkscape:window-y="-8"
     inkscape:window-maximized="1"
     inkscape:current-layer="Layer_1"
     inkscape:snap-path-clip="true"
     inkscape:snap-path-mask="true"
     fit-margin-top="30"
     fit-margin-left="30"
     fit-margin-right="30"
     fit-margin-bottom="30">
    <sodipodi:guide
       position="30.587049,30.516019"
       orientation="0,1"
       id="guide4544"
       inkscape:locked="false" />
    <sodipodi:guide
       position="30.580946,30.882501"
       orientation="1,0"
       id="guide4546"
       inkscape:locked="false" />
    <sodipodi:guide
       position="31.090017,30.79558"
       orientation="1,0"
       id="guide4548"
       inkscape:locked="false" />
    <sodipodi:guide
       position="30.619145,30.484909"
       orientation="0,1"
       id="guide4550"
       inkscape:locked="false" />
    <sodipodi:guide
       position="30.844049,30.306221"
       orientation="0,1"
       id="guide4552"
       inkscape:locked="false" />
  </sodipodi:namedview>
  <defs
     id="defs4">
    <style
       id="style2">.cls-1{fill:#1b3b6a;}.cls-2{fill:#a7a9ac;}.cls-3{fill:#8cc641;}.cls-4{fill:#fcb116;}.cls-5{fill:#f15a29;}</style>
  </defs>
  <title
     id="title6">designcrowd_105592_3871877_565497_sourcefile</title>
  <g
     id="g4586"
     inkscape:label="Old &quot;WorkCloud&quot;"
     style="display:none"
     transform="translate(30.09,30.09)">
    <path
       id="path8"
       transform="translate(-187.48,-323.45)"
       d="m 385.51,356.75 6.59,22.09 5.37,-22.09 h 6.1 l -2.08,7.69 4.73,14.56 5.45,-22.22 h 6 l -8.18,29.78 h -6.59 l -4,-12.21 -3.5,12.21 h -6.59 l -9.36,-29.78 z"
       class="cls-1"
       inkscape:connector-curvature="0"
       style="fill:#1b3b6a" />
    <path
       id="path10"
       transform="translate(-187.48,-323.45)"
       d="m 426.36,364.73 c 7.45,0 9.85,2.73 9.85,11.31 0,8 -2.28,10.7 -9.85,10.7 -7.57,0 -9.85,-3 -9.85,-10.7 0.01,-8.83 2.57,-11.31 9.85,-11.31 z m 0,17.42 c 3.21,0 4.15,-0.41 4.15,-6.1 0,-6.06 -0.73,-6.75 -4.15,-6.75 -3.42,0 -4.15,0.69 -4.15,6.75 0,5.56 1.14,6.09 4.15,6.09 z"
       class="cls-1"
       inkscape:connector-curvature="0"
       style="fill:#1b3b6a" />
    <path
       id="path12"
       transform="translate(-187.48,-323.45)"
       d="m 439.62,364.93 h 4.8 l 0.9,2.73 a 8.78,8.78 0 0 1 6.18,-2.93 6.91,6.91 0 0 1 2.4,0.24 v 5.49 c -0.57,0 -1.87,-0.12 -3.13,-0.12 -2.36,0 -4.07,0.41 -5.45,2.4 v 13.79 h -5.7 z"
       class="cls-1"
       inkscape:connector-curvature="0"
       style="fill:#1b3b6a" />
    <path
       id="path14"
       transform="translate(-187.48,-323.45)"
       d="m 456.59,354.72 h 5.7 v 17.46 h 1.18 l 6.1,-7.24 h 7.24 l -8.1,9.4 8.1,12.21 H 470 l -6.55,-10 h -1.18 v 10 h -5.7 z"
       class="cls-1"
       inkscape:connector-curvature="0"
       style="fill:#1b3b6a" />
    <path
       id="path16"
       transform="translate(-187.48,-323.45)"
       d="m 489.22,356.42 a 34.9,34.9 0 0 1 10.37,1.34 v 4.48 c 0,0 -5,-0.57 -9,-0.57 -4.19,0 -5.78,0.94 -5.78,10 0,6.67 1.1,9.89 5.78,9.89 4.27,0 9,-0.33 9,-0.33 v 4.44 a 32.74,32.74 0 0 1 -10.37,1.14 c -7.53,-0.08 -10.13,-5.78 -10.13,-15.22 0,-9.44 2.03,-15.17 10.13,-15.17 z"
       class="cls-1"
       inkscape:connector-curvature="0"
       style="fill:#1b3b6a" />
    <path
       id="path18"
       transform="translate(-187.48,-323.45)"
       d="m 502.48,354.67 h 5.7 v 23.28 c 0,3.13 0.73,3.83 1.87,4.23 0,0 2.44,0.85 2.72,0.85 v 3.5 h -4.72 c -3.54,0 -5.57,-2 -5.57,-7.69 z"
       class="cls-1"
       inkscape:connector-curvature="0"
       style="fill:#1b3b6a" />
    <path
       id="path20"
       transform="translate(-187.48,-323.45)"
       d="m 523.92,364.73 c 7.45,0 9.85,2.73 9.85,11.31 0,8 -2.28,10.7 -9.85,10.7 -7.57,0 -9.85,-3 -9.85,-10.7 0,-8.83 2.57,-11.31 9.85,-11.31 z m 0,17.42 c 3.21,0 4.15,-0.41 4.15,-6.1 0,-6.06 -0.73,-6.75 -4.15,-6.75 -3.42,0 -4.15,0.69 -4.15,6.75 0,5.56 1.14,6.09 4.15,6.09 z"
       class="cls-1"
       inkscape:connector-curvature="0"
       style="fill:#1b3b6a" />
    <path
       id="path22"
       transform="translate(-187.48,-323.45)"
       d="m 536.86,364.93 h 5.7 v 14.48 c 0,2.16 1,2.89 2.4,2.89 a 7.4,7.4 0 0 0 5.21,-1.87 v -15.5 h 5.7 v 21.61 h -4.6 l -1.1,-2.28 c -2.16,1.26 -3.58,2.64 -6.87,2.64 -5,0 -6.43,-3.46 -6.43,-7.61 z"
       class="cls-1"
       inkscape:connector-curvature="0"
       style="fill:#1b3b6a" />
    <path
       id="path24"
       transform="translate(-187.48,-323.45)"
       d="m 566.27,364.6 a 17.16,17.16 0 0 1 6.55,1.42 v -11.43 h 5.7 v 31.94 h -4.72 l -1,-2.2 a 11.52,11.52 0 0 1 -6.55,2.44 c -5.29,0 -7,-4.23 -7,-10.95 -0.02,-6.9 1.04,-11.22 7.02,-11.22 z m 1.51,17.29 a 9.42,9.42 0 0 0 5,-1.3 v -10.7 a 13.82,13.82 0 0 0 -5,-0.81 c -1.83,0 -2.85,1 -2.85,6.55 0,4.8 0.98,6.27 2.85,6.27 z"
       class="cls-1"
       inkscape:connector-curvature="0"
       style="fill:#1b3b6a" />
  </g>
  <g
     id="g4575"
     inkscape:label="Old &quot;Solutions&quot;"
     style="display:none;fill:#1b3b6a;fill-opacity:1"
     transform="translate(30.09,30.09)">
    <path
       id="path26"
       transform="translate(-187.48,-323.45)"
       d="m 386.66,409.08 c 1.13,0.16 4.06,0.26 6.51,0.26 1.08,0 3.42,-0.13 3.77,-2.37 l 0.29,-1.79 c 0.24,-1.5 0.21,-2.58 -1.79,-2.58 h -3.66 c -4.14,0 -4.27,-2.56 -4,-4.53 l 0.26,-1.74 c 0.66,-4.11 3.11,-4.79 6,-4.69 1.4,0.05 5,0.42 6.45,0.63 l -0.24,1.55 c -1.32,0 -6.53,-0.24 -6.53,-0.24 -2,-0.11 -3.29,0.21 -3.69,2.74 l -0.26,1.74 c -0.45,2.82 0.92,2.58 2.32,2.58 h 3.66 c 3.24,0 3.77,2.37 3.43,4.53 l -0.29,1.79 c -0.63,4 -3.87,4.32 -6,4.32 a 47.38,47.38 0 0 1 -6.43,-0.63 z"
       class="cls-1"
       inkscape:connector-curvature="0"
       style="fill:#1b3b6a;fill-opacity:1" />
    <path
       id="path28"
       transform="translate(-187.48,-323.45)"
       d="m 419.24,397 c 4.42,0 5.9,2.4 5.08,7.32 -0.87,5.19 -2.37,6.93 -7,6.93 -4.63,0 -6.14,-1.92 -5.35,-6.93 0.92,-5.75 2.69,-7.32 7.27,-7.32 z m -1.87,12.3 c 2.77,0 4.21,-0.37 5,-5 0.79,-4.63 -0.26,-5.37 -3.35,-5.37 -3.09,0 -4.27,0.53 -5.08,5.37 -0.76,4.52 0.72,4.97 3.43,4.97 z"
       class="cls-1"
       inkscape:connector-curvature="0"
       style="fill:#1b3b6a;fill-opacity:1" />
    <path
       id="path30"
       transform="translate(-187.48,-323.45)"
       d="m 439.87,390.46 h 1.95 l -2.48,15.65 c -0.42,2.61 0.05,2.79 1.08,3 l 2,0.47 -0.24,1.47 h -1.79 c -2.5,0 -3.5,-1.58 -3,-5 z"
       class="cls-1"
       inkscape:connector-curvature="0"
       style="fill:#1b3b6a;fill-opacity:1" />
    <path
       id="path32"
       transform="translate(-187.48,-323.45)"
       d="m 456.62,397.09 h 2 l -1.62,9.75 c -0.31,2 0.63,2.53 2,2.53 2.11,0 3.21,-0.53 5.4,-1.5 l 1.69,-10.77 h 2 l -2.21,14 h -1.37 l -0.32,-1.63 c -1.76,0.92 -3.32,1.87 -5.45,1.87 -2.79,0 -4,-2 -3.61,-4.48 z"
       class="cls-1"
       inkscape:connector-curvature="0"
       style="fill:#1b3b6a;fill-opacity:1" />
    <path
       id="path34"
       transform="translate(-187.48,-323.45)"
       d="m 480.59,397.54 2.69,-0.47 1.08,-3.9 h 1.48 l -0.61,3.9 h 4.08 L 489,399 h -4.08 l -1.11,7.09 c -0.4,2.61 0.05,2.79 1.08,3 l 2,0.47 -0.21,1.47 h -1.79 c -2.56,0 -3.53,-1.55 -3,-5 L 483,399 h -2.61 z"
       class="cls-1"
       inkscape:connector-curvature="0"
       style="fill:#1b3b6a;fill-opacity:1" />
    <path
       id="path36"
       transform="translate(-187.48,-323.45)"
       d="m 502.22,397.09 h 1.95 l -2.21,14 H 500 Z m 0.26,-3.66 a 0.7,0.7 0 0 1 0.74,-0.66 h 1.32 c 0.4,0 0.55,0.29 0.5,0.66 l -0.21,1.42 a 0.67,0.67 0 0 1 -0.71,0.61 h -1.32 a 0.49,0.49 0 0 1 -0.53,-0.61 z"
       class="cls-1"
       inkscape:connector-curvature="0"
       style="fill:#1b3b6a;fill-opacity:1" />
    <path
       id="path38"
       transform="translate(-187.48,-323.45)"
       d="m 523.69,397 c 4.43,0 5.9,2.4 5.08,7.32 -0.87,5.19 -2.37,6.93 -7,6.93 -4.63,0 -6.14,-1.92 -5.35,-6.93 0.92,-5.75 2.69,-7.32 7.27,-7.32 z m -1.87,12.3 c 2.77,0 4.21,-0.37 5,-5 0.79,-4.63 -0.26,-5.37 -3.35,-5.37 -3.09,0 -4.27,0.53 -5.09,5.37 -0.75,4.52 0.73,4.97 3.44,4.97 z"
       class="cls-1"
       inkscape:connector-curvature="0"
       style="fill:#1b3b6a;fill-opacity:1" />
    <path
       id="path40"
       transform="translate(-187.48,-323.45)"
       d="m 543.29,397.09 h 1.37 l 0.32,1.63 c 1.77,-0.92 3.34,-1.87 5.48,-1.87 2.79,0 4,2.16 3.61,4.48 l -1.55,9.75 h -2 l 1.55,-9.75 c 0.26,-1.74 -0.63,-2.53 -2,-2.53 -2.11,0 -3.21,0.53 -5.4,1.5 L 543,411.08 h -2 z"
       class="cls-1"
       inkscape:connector-curvature="0"
       style="fill:#1b3b6a;fill-opacity:1" />
    <path
       id="path42"
       transform="translate(-187.48,-323.45)"
       d="m 566,409.4 h 7.22 a 1.56,1.56 0 0 0 1.69,-1.42 l 0.24,-1.42 c 0.16,-0.92 -0.08,-1.45 -1.24,-1.45 H 570 c -2.48,0 -3.79,-0.82 -3.37,-3.45 l 0.21,-1.34 c 0.37,-2.27 1.47,-3.48 4.19,-3.48 1.37,0 5.48,0.29 6.82,0.42 l -0.24,1.5 h -6.87 c -1.69,0 -1.87,1 -1.95,1.55 l -0.21,1.34 c -0.29,1.76 0.71,1.5 1.45,1.5 h 4 c 2.29,0 3.43,1.42 3.11,3.4 l -0.24,1.66 c -0.45,2.87 -2.48,3.13 -4,3.13 -1.29,0 -6.16,-0.4 -7.14,-0.5 z"
       class="cls-1"
       inkscape:connector-curvature="0"
       style="fill:#1b3b6a;fill-opacity:1" />
  </g>
  <g
     id="g4564"
     inkscape:label="Cogs"
     transform="translate(30.09,30.09)">
    <path
       inkscape:label="Cog - Grey"
       id="path44"
       transform="translate(-187.48,-323.45)"
       d="m 301.81,404.1 a 1.24,1.24 0 0 0 -1,-1.17 l -6.09,-1.07 a 1.61,1.61 0 0 1 -1.2,-1.15 l -0.82,-3.07 a 1.4,1.4 0 0 1 0.2,-1.37 c 0.28,-0.23 0.4,-0.36 0.28,-0.28 l -1.08,0.67 -1.2,0.74 a 1.24,1.24 0 0 1 -1.52,-0.22 l -0.94,-1.05 -1.33,-1.49 -2.71,-3 c -0.37,-0.41 -0.74,-0.72 -0.83,-0.7 a 1.8,1.8 0 0 0 -0.45,1 3.08,3.08 0 0 0 0.39,1.75 c 0,0 4.41,7.26 4.41,12.3 a 20.1,20.1 0 0 1 -40.2,0 c 0,-4.48 3.49,-11.06 3.49,-11.06 a 1,1 0 0 0 -0.41,-1.36 l -0.64,-0.34 a 1.23,1.23 0 0 1 -0.57,-1.42 l 0.44,-1.34 a 1.3,1.3 0 0 0 -0.19,-1.33 2.27,2.27 0 0 0 -1.48,-0.21 l -5.43,1 a 1.47,1.47 0 0 0 -1.15,0.84 2.74,2.74 0 0 0 0.4,2 l 2.92,2.45 1.42,1.19 a 1.06,1.06 0 0 1 0.23,1.29 l -0.92,1.6 -1.51,2.62 -0.93,1.6 a 1,1 0 0 1 -1.22,0.45 l -1.74,-0.63 -1.43,-0.64 a 4.43,4.43 0 0 0 -1.92,-0.17 l -1.63,0.28 -1,0.18 c 0,0 0.14,0.44 0.33,1 l 1.31,3.58 0.5,1.36 c 0.08,0.23 0.6,0.5 1.14,0.59 l 3.18,0.56 1,0.17 0.21,1 0.82,3.07 a 1.61,1.61 0 0 1 -0.46,1.6 l -4.75,4 a 1.24,1.24 0 0 0 -0.27,1.51 l 1.85,3.21 a 1.24,1.24 0 0 0 1.44,0.52 l 5.81,-2.12 0.94,-0.35 0.67,0.73 2.25,2.26 0.73,0.68 -0.35,0.94 -2.09,5.7 a 1.24,1.24 0 0 0 0.52,1.44 l 3.21,1.85 a 1.24,1.24 0 0 0 1.51,-0.27 l 4,-4.75 0.64,-0.77 1,0.3 3.08,0.82 1,0.21 c 0,0 0.08,0.45 0.17,1 l 0.96,6.17 a 1.24,1.24 0 0 0 1.17,1 h 3.7 a 1.24,1.24 0 0 0 1.17,-1 l 1.07,-6.09 c 0.1,-0.54 0.17,-1 0.17,-1 l 1,-0.21 3.07,-0.82 a 1.61,1.61 0 0 1 1.59,0.46 l 4,4.75 a 1.24,1.24 0 0 0 1.51,0.27 l 3.21,-1.85 a 1.24,1.24 0 0 0 0.52,-1.44 l -2.12,-5.81 a 1.61,1.61 0 0 1 0.4,-1.61 l 2.25,-2.25 a 1.61,1.61 0 0 1 1.61,-0.4 l 5.82,2.12 a 1.23,1.23 0 0 0 1.44,-0.52 l 1.85,-3.21 a 1.24,1.24 0 0 0 -0.27,-1.51 l -4.74,-4 a 1.61,1.61 0 0 1 -0.46,-1.59 l 0.82,-3.07 a 1.61,1.61 0 0 1 1.2,-1.15 l 6,-1 a 9,9 0 0 0 1,-0.22 5.64,5.64 0 0 0 0.05,-1 z"
       class="cls-2"
       inkscape:connector-curvature="0"
       style="fill:#a7a9ac" />
    <path
       inkscape:label="Cog - Green"
       id="path46"
       transform="translate(-187.48,-323.45)"
       d="m 244,386.53 a 1.24,1.24 0 0 1 -1.46,-0.48 l -0.74,-1.2 -1.05,-1.7 -2.18,-3.51 -1.05,-1.7 -0.74,-1.2 a 1.24,1.24 0 0 1 0.22,-1.52 l 1.05,-0.94 1.49,-1.33 3,-2.71 0.75,-0.67 -0.14,-0.25 a 2.18,2.18 0 0 0 -1.13,-0.39 l -2.09,-0.3 a 4.75,4.75 0 0 0 -1.93,0.2 l -1.81,0.66 a 1.61,1.61 0 0 1 -1.61,-0.4 l -1.81,-1.81 a 1.61,1.61 0 0 1 -0.4,-1.61 l 0.89,-2.43 a 6.2,6.2 0 0 0 0.31,-1.94 v -1 a 2,2 0 0 0 -0.9,-1.5 l -1.62,-0.94 a 1.24,1.24 0 0 0 -1.51,0.27 l -3.35,4 a 1.61,1.61 0 0 1 -1.59,0.46 l -2.48,-0.66 -1,-0.21 -0.17,-1 -0.9,-5.13 a 1.24,1.24 0 0 0 -1.17,-1 h -3 a 1.24,1.24 0 0 0 -1.17,1 l -0.9,5.13 c -0.09,0.54 -0.17,1 -0.17,1 l -1,0.21 -2.48,0.66 -1,0.3 -0.64,-0.77 -3.34,-4 a 1.24,1.24 0 0 0 -1.51,-0.27 l -2.62,1.51 a 1.24,1.24 0 0 0 -0.52,1.44 l 1.78,4.89 0.35,0.94 -0.73,0.67 -1.82,1.82 -0.67,0.73 -0.94,-0.35 -4.89,-1.78 a 1.24,1.24 0 0 0 -1.44,0.52 l -1.51,2.62 a 1.24,1.24 0 0 0 0.27,1.51 l 4,3.35 a 1.61,1.61 0 0 1 0.46,1.59 l -0.66,2.47 -0.21,1 -1,0.17 -5.13,0.9 a 1.24,1.24 0 0 0 -1,1.17 v 3 a 1.24,1.24 0 0 0 1,1.17 l 5.13,0.9 1,0.17 0.21,1 0.66,2.47 a 1.61,1.61 0 0 1 -0.46,1.59 l -4,3.35 a 1.24,1.24 0 0 0 -0.27,1.51 l 1.51,2.62 a 1.24,1.24 0 0 0 1.44,0.52 l 4.89,-1.78 0.94,-0.35 0.67,0.74 1.82,1.82 0.74,0.67 -0.35,0.94 -1.78,4.89 a 1.24,1.24 0 0 0 0.52,1.44 l 2.62,1.51 a 1.23,1.23 0 0 0 1.51,-0.27 l 3.34,-4 0.64,-0.77 1,0.3 2.48,0.66 1,0.21 c 0,0 0.08,0.45 0.17,1 l 0.9,5.13 a 1.24,1.24 0 0 0 1.17,1 h 3 a 1.24,1.24 0 0 0 1.17,-1 l 0.9,-5.13 0.17,-1 1,-0.21 2.48,-0.66 a 1.61,1.61 0 0 1 1.59,0.46 l 3.35,4 a 1.24,1.24 0 0 0 1.51,0.27 l 2.62,-1.51 a 1.24,1.24 0 0 0 0.52,-1.44 l -1.79,-4.89 a 1.61,1.61 0 0 1 0.4,-1.61 l 1.81,-1.81 a 1.61,1.61 0 0 1 1.61,-0.4 l 4.89,1.78 a 1.24,1.24 0 0 0 1.44,-0.52 l 1.51,-2.62 a 1.24,1.24 0 0 0 -0.27,-1.51 l -4,-3.35 a 1.61,1.61 0 0 1 -0.46,-1.59 l 0.66,-2.47 a 1.61,1.61 0 0 1 1.2,-1.15 l 5.13,-0.9 a 1.19,1.19 0 0 0 1,-1.08 c 0,-0.5 -0.24,-0.81 -0.54,-0.7 l -1.46,0.58 z m -26.6,15.68 a 17.7,17.7 0 1 1 17.7,-17.69 17.7,17.7 0 0 1 -17.7,17.69 z"
       class="cls-3"
       inkscape:connector-curvature="0"
       style="fill:#8cc641" />
    <path
       inkscape:label="Cog - Green fix"
       id="path48"
       transform="translate(-187.48,-323.45)"
       d="m 243.24,369.27 c 0,-0.09 -0.08,-0.16 -0.12,-0.17 -0.04,-0.01 0,0.1 0.07,0.24 0.07,0.14 0.08,0.02 0.05,-0.07 z"
       class="cls-3"
       inkscape:connector-curvature="0"
       style="fill:#8cc641" />
    <path
       inkscape:label="Cog - Green overlay"
       id="path50"
       transform="translate(-187.48,-323.45)"
       d="m 234.62,369.11 a 1.61,1.61 0 0 0 1.61,0.4 l 1.81,-0.66 c 0.52,-0.19 0.54,-0.4 0,-0.47 l -1.89,-0.27 -1.4,-0.2 a 1.24,1.24 0 0 1 -1,-1.14 v -1.41 c 0,-0.55 0,-1.45 -0.06,-2 v 0 c 0,-0.55 -0.19,-0.58 -0.37,-0.06 l -0.89,2.43 a 1.61,1.61 0 0 0 0.4,1.61 z"
       class="cls-3"
       inkscape:connector-curvature="0"
       style="fill:#8cc641" />
    <path
       inkscape:label="Cog - Yellow"
       id="path52"
       transform="translate(-187.48,-323.45)"
       d="m 355.3,400.83 a 1.24,1.24 0 0 0 1,-1.17 v -3 a 1.24,1.24 0 0 0 -1,-1.17 l -5.13,-0.9 a 1.61,1.61 0 0 1 -1.2,-1.15 l -0.66,-2.47 a 1.6,1.6 0 0 1 0.46,-1.59 l 4,-3.35 a 1.24,1.24 0 0 0 0.27,-1.51 l -1.51,-2.62 a 1.24,1.24 0 0 0 -1.44,-0.52 l -4.9,1.78 a 1.61,1.61 0 0 1 -1.61,-0.4 l -1.81,-1.81 a 1.61,1.61 0 0 1 -0.4,-1.61 l 1.79,-4.89 a 1.24,1.24 0 0 0 -0.52,-1.44 L 340,371.48 a 1.24,1.24 0 0 0 -1.51,0.27 l -3.35,4 a 1.61,1.61 0 0 1 -1.6,0.46 l -2.48,-0.66 -1,-0.21 c 0,0 -0.08,-0.45 -0.17,-1 l -0.9,-5.13 a 1.24,1.24 0 0 0 -1.17,-1 h -3 a 1.24,1.24 0 0 0 -1.17,1 l -0.9,5.13 -0.17,1 -1,0.21 -2.48,0.66 -1,0.3 -0.64,-0.77 -3.34,-4 a 1.24,1.24 0 0 0 -1.51,-0.27 l -0.45,0.26 a 1.84,1.84 0 0 0 -0.83,1.5 l 0.06,2 c 0,0.55 0.05,1.45 0.07,2 l 0.09,2 c 0,0.55 0,1 0,1 l -0.73,0.67 -1.82,1.82 c -0.37,0.41 -1,1 -1.42,1.41 l -0.09,0.08 a 1.93,1.93 0 0 1 -1.7,0.35 l -1.34,-0.44 -1.9,-0.63 -1.11,-0.37 a 1.28,1.28 0 0 0 -1.45,0.55 l -0.45,0.78 A 1.24,1.24 0 0 0 300,386 l 4,3.35 a 1.61,1.61 0 0 1 0.46,1.59 l -0.66,2.47 c -0.12,0.54 -0.21,1 -0.21,1 l -1,0.17 -5.13,0.9 a 1.24,1.24 0 0 0 -1,1.17 v 3 a 1.24,1.24 0 0 0 1,1.17 l 5.13,0.9 1,0.17 c 0,0 0.1,0.44 0.21,1 l 0.66,2.47 a 1.6,1.6 0 0 1 -0.46,1.59 l -1.37,1.15 -0.82,0.69 -0.82,0.69 -1,0.82 a 1.24,1.24 0 0 0 -0.27,1.51 l 1.51,2.62 a 1.24,1.24 0 0 0 1.44,0.52 l 4.89,-1.78 0.94,-0.35 0.67,0.73 1.82,1.82 0.73,0.68 -0.35,0.94 -1.78,4.89 a 1.24,1.24 0 0 0 0.52,1.44 l 2.62,1.51 a 1.24,1.24 0 0 0 1.51,-0.27 l 3.34,-4 0.64,-0.77 1,0.3 2.48,0.66 1,0.21 0.17,1 0.9,5.13 a 1.24,1.24 0 0 0 1.17,1 h 3 a 1.24,1.24 0 0 0 1.17,-1 l 0.9,-5.13 c 0.09,-0.54 0.17,-1 0.17,-1 l 1,-0.21 2.48,-0.66 a 1.61,1.61 0 0 1 1.6,0.46 l 3.35,4 a 1.24,1.24 0 0 0 1.51,0.27 l 2.62,-1.51 a 1.24,1.24 0 0 0 0.52,-1.44 L 341.37,417 a 1.61,1.61 0 0 1 0.4,-1.61 l 1.81,-1.81 a 1.61,1.61 0 0 1 1.61,-0.4 l 4.9,1.78 a 1.24,1.24 0 0 0 1.44,-0.52 L 353,411.8 a 1.24,1.24 0 0 0 -0.27,-1.51 l -4,-3.35 a 1.6,1.6 0 0 1 -0.46,-1.59 l 0.66,-2.47 a 1.61,1.61 0 0 1 1.2,-1.15 z m -28.94,15 a 17.7,17.7 0 1 1 17.7,-17.7 17.7,17.7 0 0 1 -17.7,17.71 z"
       class="cls-4"
       inkscape:connector-curvature="0"
       style="fill:#fcb116" />
    <path
       inkscape:label="Cog - Red"
       id="path54"
       transform="translate(-187.48,-323.45)"
       d="m 246.67,350.28 a 1.61,1.61 0 0 1 0.51,1.58 l -0.81,3.47 c -0.1,0.54 -0.18,1 -0.18,1 l -1,0.2 -6.66,1.38 a 1.24,1.24 0 0 0 -0.95,1.2 l 0.13,4.13 a 1.24,1.24 0 0 0 1,1.14 l 6.73,1 1,0.14 0.24,1 1,3.41 a 1.61,1.61 0 0 1 -0.41,1.61 l -5.01,4.46 a 1.24,1.24 0 0 0 -0.22,1.52 l 2.18,3.51 a 1.24,1.24 0 0 0 1.46,0.48 L 252,379 l 0.93,-0.38 0.7,0.71 2.6,2.45 0.76,0.65 -0.32,1 -2.13,6.45 a 1.24,1.24 0 0 0 0.57,1.42 l 3.64,2 a 1.24,1.24 0 0 0 1.5,-0.31 l 4.2,-5.35 0.62,-0.79 1,0.27 3.48,0.81 1,0.18 c 0,0 0.09,0.44 0.2,1 l 1.38,6.66 a 1.24,1.24 0 0 0 1.2,0.95 l 4.13,-0.13 a 1.24,1.24 0 0 0 1.14,-1 l 1,-6.73 c 0.08,-0.54 0.14,-1 0.14,-1 l 1,-0.24 3.42,-1 a 1.61,1.61 0 0 1 1.61,0.41 l 4.53,5.08 a 1.24,1.24 0 0 0 1.52,0.22 l 3.51,-2.18 a 1.24,1.24 0 0 0 0.48,-1.45 l -2.53,-6.31 a 1.61,1.61 0 0 1 0.35,-1.62 l 2.44,-2.6 a 1.61,1.61 0 0 1 1.6,-0.45 l 6.46,2.13 a 1.24,1.24 0 0 0 1.42,-0.57 l 1.95,-3.64 A 1.24,1.24 0 0 0 307,374 l -5.35,-4.2 a 1.61,1.61 0 0 1 -0.51,-1.58 l 0.82,-3.47 a 1.61,1.61 0 0 1 1.16,-1.19 l 6.65,-1.38 a 1.24,1.24 0 0 0 0.95,-1.2 l -0.13,-4.13 a 1.24,1.24 0 0 0 -1,-1.14 l -6.73,-1 a 1.61,1.61 0 0 1 -1.23,-1.11 l -1,-3.41 a 1.61,1.61 0 0 1 0.41,-1.61 l 5.07,-4.53 a 1.24,1.24 0 0 0 0.22,-1.52 L 304.14,339 a 1.24,1.24 0 0 0 -1.46,-0.48 l -6.32,2.53 a 1.61,1.61 0 0 1 -1.62,-0.35 l -2.6,-2.44 a 1.61,1.61 0 0 1 -0.45,-1.6 l 2.13,-6.45 a 1.24,1.24 0 0 0 -0.57,-1.42 l -3.64,-2 a 1.24,1.24 0 0 0 -1.5,0.31 l -4.2,5.35 a 1.61,1.61 0 0 1 -1.58,0.51 l -3.47,-0.81 -1,-0.18 -0.2,-1 -1.38,-6.66 a 1.24,1.24 0 0 0 -1.2,-0.95 l -4.13,0.13 a 1.24,1.24 0 0 0 -1.14,1 l -1,6.73 c -0.08,0.54 -0.14,1 -0.14,1 l -1,0.24 -3.42,1 -0.94,0.33 -0.66,-0.75 -4.53,-5.08 a 1.23,1.23 0 0 0 -1.51,-0.22 l -3.51,2.18 a 1.24,1.24 0 0 0 -0.48,1.46 l 2.53,6.31 0.38,0.93 -0.71,0.7 -2.45,2.61 -0.65,0.75 -1,-0.32 -6.46,-2.13 a 1.24,1.24 0 0 0 -1.42,0.57 l -2,3.64 a 1.24,1.24 0 0 0 0.31,1.5 z m 26.83,-11.85 h 0.69 a 21.6,21.6 0 0 1 0.67,43.19 h -0.69 a 21.6,21.6 0 0 1 -0.66,-43.19 z"
       class="cls-5"
       inkscape:connector-curvature="0"
       style="fill:#f15a29" />
  </g>
  <g
     aria-label="WorkCloud"
     transform="scale(1.0006392,0.99936121)"
     style="font-style:normal;font-weight:normal;font-size:40.65626144px;line-height:25.41016388px;font-family:sans-serif;letter-spacing:0px;word-spacing:0px;display:inline;fill:#1b3b6a;fill-opacity:1;stroke:none;stroke-width:1.01640642px;stroke-linecap:butt;stroke-linejoin:miter;stroke-opacity:1"
     id="text4538">
    <path
       d="m 221.91912,63.41771 9.31028,29.760383 h 6.58632 l 3.53709,-12.156222 3.98431,12.156222 h 6.58632 L 260.136,63.41771 h -6.05778 l -5.44794,22.198318 -4.71613,-14.514285 2.07347,-7.684033 h -6.09844 l -5.32597,22.117006 -6.62697,-22.117006 z"
       style="font-style:normal;font-variant:normal;font-weight:bold;font-stretch:normal;font-family:Exo;-inkscape-font-specification:'Exo Bold';fill:#1b3b6a;fill-opacity:1;stroke-width:1.01640642px"
       id="path4546" />
    <path
       d="m 258.88582,82.688778 c 0,7.724689 2.39872,10.692596 9.87948,10.692596 7.5214,0 9.83881,-2.683313 9.83881,-10.692596 0,-8.578472 -2.39872,-11.302441 -9.83881,-11.302441 -7.31813,0 -9.87948,2.480032 -9.87948,11.302441 z m 5.69188,0 c 0,-6.017127 0.81313,-6.708284 4.1876,-6.708284 3.37447,0 4.14693,0.691157 4.14693,6.708284 0,5.691876 -0.93509,6.139095 -4.14693,6.139095 -3.04922,0 -4.1876,-0.528531 -4.1876,-6.139095 z"
       style="font-style:normal;font-variant:normal;font-weight:bold;font-stretch:normal;font-family:Exo;-inkscape-font-specification:'Exo Bold';fill:#1b3b6a;fill-opacity:1;stroke-width:1.01640642px"
       id="path4548" />
    <path
       d="m 282.00081,93.178093 h 5.69188 V 79.436277 c 1.42297,-2.032813 3.13053,-2.39872 5.48859,-2.39872 1.21969,0 2.56135,0.04066 3.13054,0.121969 v -5.529252 c -0.56919,-0.203281 -1.46363,-0.243937 -2.39872,-0.243937 -2.68332,0 -4.71613,1.504281 -6.22041,2.927251 l -0.89444,-2.72397 h -4.79744 z"
       style="font-style:normal;font-variant:normal;font-weight:bold;font-stretch:normal;font-family:Exo;-inkscape-font-specification:'Exo Bold';fill:#1b3b6a;fill-opacity:1;stroke-width:1.01640642px"
       id="path4550" />
    <path
       d="m 298.99386,93.178093 h 5.69188 v -10.00144 h 1.17903 l 6.58631,10.00144 h 6.74894 l -8.09059,-12.156222 8.09059,-9.432253 h -7.19616 l -6.13909,7.236815 h -1.17903 V 61.384897 h -5.69188 z"
       style="font-style:normal;font-variant:normal;font-weight:bold;font-stretch:normal;font-family:Exo;-inkscape-font-specification:'Exo Bold';fill:#1b3b6a;fill-opacity:1;stroke-width:1.01640642px"
       id="path4552" />
    <path
       d="m 321.46216,78.216589 c 0,9.472909 2.60201,15.164785 10.12341,15.205442 4.26891,0.08131 7.72469,-0.284594 10.36735,-1.09772 v -4.472188 c 0,0 -4.71613,0.32525 -8.98503,0.32525 -4.71613,0 -5.81385,-3.211845 -5.81385,-9.879472 0,-8.985034 1.62625,-9.960784 5.77319,-9.960784 3.98431,0 8.98503,0.569188 9.02569,0.569188 v -4.431533 c -3.21184,-0.97575 -6.17975,-1.382313 -10.36735,-1.382313 -8.09059,0 -10.12341,5.610565 -10.12341,15.12413 z"
       style="font-style:normal;font-variant:normal;font-weight:bold;font-stretch:normal;font-family:Exo;-inkscape-font-specification:'Exo Bold';fill:#1b3b6a;fill-opacity:1;stroke-width:1.01640642px"
       id="path4554" />
    <path
       d="m 344.81156,85.49406 c 0,5.732532 2.07347,7.684033 5.61056,7.684033 h 4.67547 v -3.496439 c -0.28459,0 -2.72397,-0.853781 -2.72397,-0.853781 -1.09772,-0.406563 -1.87019,-1.057063 -1.87019,-4.228251 V 61.34424 h -5.69187 z"
       style="font-style:normal;font-variant:normal;font-weight:bold;font-stretch:normal;font-family:Exo;-inkscape-font-specification:'Exo Bold';fill:#1b3b6a;fill-opacity:1;stroke-width:1.01640642px"
       id="path4556" />
    <path
       d="m 356.39732,82.688778 c 0,7.724689 2.39872,10.692596 9.87947,10.692596 7.52141,0 9.83881,-2.683313 9.83881,-10.692596 0,-8.578472 -2.39872,-11.302441 -9.83881,-11.302441 -7.31813,0 -9.87947,2.480032 -9.87947,11.302441 z m 5.69187,0 c 0,-6.017127 0.81313,-6.708284 4.1876,-6.708284 3.37447,0 4.14694,0.691157 4.14694,6.708284 0,5.691876 -0.9351,6.139095 -4.14694,6.139095 -3.04922,0 -4.1876,-0.528531 -4.1876,-6.139095 z"
       style="font-style:normal;font-variant:normal;font-weight:bold;font-stretch:normal;font-family:Exo;-inkscape-font-specification:'Exo Bold';fill:#1b3b6a;fill-opacity:1;stroke-width:1.01640642px"
       id="path4558" />
    <path
       d="m 379.18707,85.981935 c 0,4.106282 1.42297,7.562064 6.46434,7.562064 3.29316,0 4.71613,-1.341656 6.83025,-2.642657 l 1.13838,2.276751 h 4.5535 V 71.589618 h -5.69188 V 87.12031 c -1.6669,1.260344 -2.92725,1.870188 -5.204,1.870188 -1.42297,0 -2.39872,-0.772469 -2.39872,-2.927251 V 71.589618 h -5.69187 z"
       style="font-style:normal;font-variant:normal;font-weight:bold;font-stretch:normal;font-family:Exo;-inkscape-font-specification:'Exo Bold';fill:#1b3b6a;fill-opacity:1;stroke-width:1.01640642px"
       id="path4560" />
    <path
       d="m 401.57977,82.485496 c 0,6.74894 1.74822,10.936535 7.07419,10.936535 2.56134,0 5.16334,-1.301001 6.505,-2.39872 l 1.0164,2.154782 h 4.67547 V 61.262928 h -5.65122 v 11.424409 c -1.99215,-0.894438 -4.71612,-1.422969 -6.54565,-1.422969 -5.97647,0 -7.07419,4.35022 -7.07419,11.221128 z m 5.69187,-0.203281 c 0,-5.529252 1.05707,-6.545658 2.84594,-6.545658 1.9515,0 3.5371,0.243937 5.04138,0.813125 v 10.692597 c -1.21969,0.772469 -2.8866,1.341656 -5.04138,1.341656 -1.82953,0 -2.84594,-1.504281 -2.84594,-6.30172 z"
       style="font-style:normal;font-variant:normal;font-weight:bold;font-stretch:normal;font-family:Exo;-inkscape-font-specification:'Exo Bold';fill:#1b3b6a;fill-opacity:1;stroke-width:1.01640642px"
       id="path4562" />
  </g>
  <text
     xml:space="preserve"
     style="font-style:normal;font-weight:normal;font-size:39.73310852px;line-height:24.83319473px;font-family:sans-serif;letter-spacing:0px;word-spacing:0px;display:none;fill:#1b3b6a;fill-opacity:1;stroke:none;stroke-width:0.99332774px;stroke-linecap:butt;stroke-linejoin:miter;stroke-opacity:1"
     x="225.3085"
     y="118.46562"
     id="text4556"
     transform="scale(1.006717,0.99332779)"
     inkscape:label="Solutions"><tspan
       sodipodi:role="line"
       id="tspan4554"
       x="225.3085"
       y="118.46562"
       style="font-style:italic;font-variant:normal;font-weight:normal;font-stretch:normal;font-size:26.48873901px;line-height:23.83986664px;font-family:Exo;-inkscape-font-specification:'Exo Italic';letter-spacing:10.31074238px;fill:#1b3b6a;fill-opacity:1;stroke-width:0.99332774px">Solutions</tspan></text>
  <g
     aria-label="Applications"
     transform="scale(1.006717,0.99332779)"
     style="font-style:normal;font-weight:normal;font-size:39.73310852px;line-height:24.83319473px;font-family:sans-serif;letter-spacing:0px;word-spacing:0px;display:inline;fill:#1b3b6a;fill-opacity:1;stroke:none;stroke-width:0.99332774px;stroke-linecap:butt;stroke-linejoin:miter;stroke-opacity:1"
     id="text4591">
    <path
       d="m 226.5005,118.46562 h 2.14558 l 2.86079,-5.4037 h 7.86715 l 1.03306,5.4037 h 1.98666 l -3.73491,-19.389755 h -1.96017 z m 6.03943,-7.36387 4.79446,-9.27106 1.66879,9.27106 z"
       style="font-style:italic;font-variant:normal;font-weight:normal;font-stretch:normal;font-size:26.48873901px;line-height:23.83986664px;font-family:Exo;-inkscape-font-specification:'Exo Italic';letter-spacing:4.42000008px;fill:#1b3b6a;fill-opacity:1;stroke-width:0.99332774px"
       id="path4521" />
    <path
       d="m 247.66552,125.61758 h 1.93367 l 1.29795,-7.92013 c 1.58933,0.68871 4.05278,0.98008 5.24477,0.98008 3.57598,0 5.24477,-3.31109 5.72157,-6.91356 0.39733,-3.09918 0.39733,-7.44333 -3.97331,-7.44333 -2.06612,0 -4.45011,0.0795 -6.70165,0.34435 z m 3.523,-9.53594 1.6423,-9.80084 h 4.95339 c 1.64231,0 2.75483,1.24497 2.1191,5.21828 -0.71519,4.4766 -2.27803,4.92691 -3.62895,5.16531 -1.96017,0.34435 -3.89385,-0.18542 -5.08584,-0.58275 z"
       style="font-style:italic;font-variant:normal;font-weight:normal;font-stretch:normal;font-size:26.48873901px;line-height:23.83986664px;font-family:Exo;-inkscape-font-specification:'Exo Italic';letter-spacing:4.42000008px;fill:#1b3b6a;fill-opacity:1;stroke-width:0.99332774px"
       id="path4523" />
    <path
       d="m 266.88196,125.61758 h 1.93368 l 1.29795,-7.92013 c 1.58932,0.68871 4.05277,0.98008 5.24477,0.98008 3.57598,0 5.24477,-3.31109 5.72156,-6.91356 0.39734,-3.09918 0.39734,-7.44333 -3.97331,-7.44333 -2.06612,0 -4.4501,0.0795 -6.70165,0.34435 z m 3.523,-9.53594 1.6423,-9.80084 h 4.9534 c 1.6423,0 2.75483,1.24497 2.1191,5.21828 -0.7152,4.4766 -2.27803,4.92691 -3.62896,5.16531 -1.96017,0.34435 -3.89384,-0.18542 -5.08584,-0.58275 z"
       style="font-style:italic;font-variant:normal;font-weight:normal;font-stretch:normal;font-size:26.48873901px;line-height:23.83986664px;font-family:Exo;-inkscape-font-specification:'Exo Italic';letter-spacing:4.42000008px;fill:#1b3b6a;fill-opacity:1;stroke-width:0.99332774px"
       id="path4525" />
    <path
       d="m 288.00559,113.45925 c -0.52977,3.41705 0.4768,5.00637 2.99323,5.00637 h 1.80123 l 0.2384,-1.48337 c -0.0265,0 -1.98665,-0.47679 -1.98665,-0.47679 -1.03306,-0.2384 -1.50986,-0.42382 -1.08604,-3.04621 l 2.48994,-15.734311 h -1.96017 z"
       style="font-style:italic;font-variant:normal;font-weight:normal;font-stretch:normal;font-size:26.48873901px;line-height:23.83986664px;font-family:Exo;-inkscape-font-specification:'Exo Italic';letter-spacing:4.42000008px;fill:#1b3b6a;fill-opacity:1;stroke-width:0.99332774px"
       id="path4527" />
    <path
       d="m 298.64175,118.46562 h 1.96017 l 2.22505,-14.06552 h -1.96016 z m 2.27804,-16.31706 c -0.053,0.37084 0.15893,0.60924 0.52977,0.60924 h 1.32444 c 0.37084,0 0.66222,-0.21191 0.71519,-0.60924 l 0.21191,-1.43039 c 0.053,-0.37085 -0.10595,-0.66222 -0.50328,-0.66222 h -1.32444 c -0.42382,0 -0.68871,0.26489 -0.74168,0.66222 z"
       style="font-style:italic;font-variant:normal;font-weight:normal;font-stretch:normal;font-size:26.48873901px;line-height:23.83986664px;font-family:Exo;-inkscape-font-specification:'Exo Italic';letter-spacing:4.42000008px;fill:#1b3b6a;fill-opacity:1;stroke-width:0.99332774px"
       id="path4529" />
    <path
       d="m 309.00351,111.41962 c -0.92711,5.32423 1.03306,7.17845 3.73491,7.20493 2.19857,0.0265 3.84087,-0.13244 6.09241,-0.74168 l 0.2384,-1.48337 c 0,0 -3.84087,0.29138 -6.27783,0.29138 -1.72177,0 -2.56941,-1.21849 -1.85421,-5.16531 0.95359,-5.13881 1.96016,-5.35072 3.523,-5.35072 2.3575,0 6.01294,0.21191 6.01294,0.21191 l 0.21191,-1.43039 c -1.80123,-0.34436 -4.52957,-0.74169 -5.90699,-0.74169 -2.48994,0 -4.60904,0.50329 -5.77454,7.20494 z"
       style="font-style:italic;font-variant:normal;font-weight:normal;font-stretch:normal;font-size:26.48873901px;line-height:23.83986664px;font-family:Exo;-inkscape-font-specification:'Exo Italic';letter-spacing:4.42000008px;fill:#1b3b6a;fill-opacity:1;stroke-width:0.99332774px"
       id="path4531" />
    <path
       d="m 326.07354,111.10175 c -1.05955,6.38379 1.03306,7.54929 4.05278,7.54929 2.03963,0 4.15873,-1.27146 4.9269,-1.77474 l 0.29138,1.58932 h 1.4039 l 1.85421,-12.6881 c -1.35092,-1.29795 -4.95339,-1.8807 -6.8076,-1.64231 -2.17208,0.26489 -4.76798,1.21849 -5.72157,6.96654 z m 1.8807,0.7152 c 0.82115,-5.05935 2.33101,-5.43019 4.05278,-5.74806 1.08603,-0.21191 2.96674,0 4.55606,0.42382 l -1.37741,8.92671 c -1.80124,0.76817 -3.01972,1.27146 -5.05935,1.27146 -2.06613,0 -2.75483,-1.21849 -2.17208,-4.87393 z"
       style="font-style:italic;font-variant:normal;font-weight:normal;font-stretch:normal;font-size:26.48873901px;line-height:23.83986664px;font-family:Exo;-inkscape-font-specification:'Exo Italic';letter-spacing:4.42000008px;fill:#1b3b6a;fill-opacity:1;stroke-width:0.99332774px"
       id="path4533" />
    <path
       d="m 344.87734,106.33378 h 2.62239 l -1.11253,7.12547 c -0.52978,3.44354 0.45031,5.00637 3.01971,5.00637 h 1.80124 l 0.21191,-1.48337 c -0.0265,0 -1.98666,-0.47679 -1.98666,-0.47679 -1.03306,-0.2384 -1.48337,-0.42382 -1.08603,-3.04621 l 1.11252,-7.12547 h 4.10576 l 0.31786,-1.96017 h -4.10575 l 0.60924,-3.92033 h -1.48337 l -1.08604,3.92033 -2.70185,0.4768 z"
       style="font-style:italic;font-variant:normal;font-weight:normal;font-stretch:normal;font-size:26.48873901px;line-height:23.83986664px;font-family:Exo;-inkscape-font-specification:'Exo Italic';letter-spacing:4.42000008px;fill:#1b3b6a;fill-opacity:1;stroke-width:0.99332774px"
       id="path4535" />
    <path
       d="m 358.48645,118.46562 h 1.96017 l 2.22505,-14.06552 h -1.96017 z m 2.27803,-16.31706 c -0.053,0.37084 0.15893,0.60924 0.52978,0.60924 h 1.32443 c 0.37085,0 0.66222,-0.21191 0.7152,-0.60924 l 0.21191,-1.43039 c 0.053,-0.37085 -0.10596,-0.66222 -0.50329,-0.66222 h -1.32443 c -0.42382,0 -0.68871,0.26489 -0.74169,0.66222 z"
       style="font-style:italic;font-variant:normal;font-weight:normal;font-stretch:normal;font-size:26.48873901px;line-height:23.83986664px;font-family:Exo;-inkscape-font-specification:'Exo Italic';letter-spacing:4.42000008px;fill:#1b3b6a;fill-opacity:1;stroke-width:0.99332774px"
       id="path4537" />
    <path
       d="m 368.84821,111.63153 c -0.79467,5.03286 0.82115,6.96654 5.37721,6.96654 4.63553,0 6.14539,-1.74826 7.01952,-6.96654 0.82115,-4.9534 -0.66222,-7.36387 -5.11233,-7.36387 -4.60904,0 -6.38379,1.61581 -7.2844,7.36387 z m 1.96016,0 c 0.82115,-4.87393 2.14559,-5.40371 5.11233,-5.40371 3.09918,0 4.13224,0.87413 3.36407,5.40371 -0.79466,4.63553 -2.25154,5.00637 -5.03286,5.00637 -2.72834,0 -4.21171,-0.45031 -3.44354,-5.00637 z"
       style="font-style:italic;font-variant:normal;font-weight:normal;font-stretch:normal;font-size:26.48873901px;line-height:23.83986664px;font-family:Exo;-inkscape-font-specification:'Exo Italic';letter-spacing:4.42000008px;fill:#1b3b6a;fill-opacity:1;stroke-width:0.99332774px"
       id="path4539" />
    <path
       d="m 387.45169,118.46562 h 1.96017 l 1.72176,-10.83389 c 2.19857,-0.98009 3.3111,-1.50986 5.4302,-1.50986 1.35092,0 2.25154,0.79466 1.98665,2.54292 l -1.56283,9.80083 h 1.96016 l 1.56284,-9.80083 c 0.37084,-2.33101 -0.82115,-4.50309 -3.62896,-4.50309 -2.14559,0 -3.73491,0.9536 -5.50966,1.8807 l -0.31786,-1.6423 h -1.37742 z"
       style="font-style:italic;font-variant:normal;font-weight:normal;font-stretch:normal;font-size:26.48873901px;line-height:23.83986664px;font-family:Exo;-inkscape-font-specification:'Exo Italic';letter-spacing:4.42000008px;fill:#1b3b6a;fill-opacity:1;stroke-width:0.99332774px"
       id="path4541" />
    <path
       d="m 406.15326,118.22722 c 0.98008,0.10596 5.8805,0.50329 7.17844,0.50329 1.48337,0 3.52301,-0.26489 3.97332,-3.15216 l 0.23839,-1.66879 c 0.31787,-1.98666 -0.82115,-3.41705 -3.12567,-3.41705 h -3.97331 c -0.74168,0 -1.74825,0.26489 -1.45688,-1.50986 l 0.21191,-1.35092 c 0.0795,-0.52978 0.26489,-1.56284 1.96017,-1.56284 h 6.91356 l 0.2384,-1.50986 c -1.35093,-0.13244 -5.48317,-0.42382 -6.86059,-0.42382 -2.72834,0 -3.84086,1.21849 -4.21171,3.49652 l -0.21191,1.35092 c -0.42381,2.64888 0.90062,3.47003 3.39056,3.47003 h 3.92034 c 1.1655,0 1.4039,0.52977 1.24497,1.45688 l -0.2384,1.43039 c -0.26489,1.58933 -1.69528,1.43039 -1.69528,1.43039 h -7.25791 z"
       style="font-style:italic;font-variant:normal;font-weight:normal;font-stretch:normal;font-size:26.48873901px;line-height:23.83986664px;font-family:Exo;-inkscape-font-specification:'Exo Italic';letter-spacing:4.42000008px;fill:#1b3b6a;fill-opacity:1;stroke-width:0.99332774px"
       id="path4543" />
  </g>
</svg>
