<?xml version="1.0" encoding="UTF-8" standalone="no"?>
<svg
   xmlns:dc="http://purl.org/dc/elements/1.1/"
   xmlns:cc="http://creativecommons.org/ns#"
   xmlns:rdf="http://www.w3.org/1999/02/22-rdf-syntax-ns#"
   xmlns:svg="http://www.w3.org/2000/svg"
   xmlns="http://www.w3.org/2000/svg"
   xmlns:sodipodi="http://sodipodi.sourceforge.net/DTD/sodipodi-0.dtd"
   xmlns:inkscape="http://www.inkscape.org/namespaces/inkscape"
   id="Layer_1"
   data-name="Layer 1"
   viewBox="0 0 451.12139 176.64"
   version="1.1"
   sodipodi:docname="workcloud-sidebyside.svg"
   inkscape:version="0.92.3 (2405546, 2018-03-11)"
   width="451.1214"
   height="176.64">
  <metadata
     id="metadata59">
    <rdf:RDF>
      <cc:Work
         rdf:about="">
        <dc:format>image/svg+xml</dc:format>
        <dc:type
           rdf:resource="http://purl.org/dc/dcmitype/StillImage" />
        <dc:title>designcrowd_105592_3871877_565497_sourcefile</dc:title>
      </cc:Work>
    </rdf:RDF>
  </metadata>
  <sodipodi:namedview
     pagecolor="#ffffff"
     bordercolor="#666666"
     borderopacity="1"
     objecttolerance="15"
     gridtolerance="15"
     guidetolerance="15"
     inkscape:pageopacity="0"
     inkscape:pageshadow="2"
     inkscape:window-width="1874"
     inkscape:window-height="1038"
     id="namedview57"
     showgrid="false"
     showguides="true"
     inkscape:guide-bbox="true"
     inkscape:zoom="2.0000001"
     inkscape:cx="293.24784"
     inkscape:cy="100.59242"
     inkscape:window-x="2505"
     inkscape:window-y="112"
     inkscape:window-maximized="0"
     inkscape:current-layer="Layer_1"
     inkscape:snap-path-clip="true"
     inkscape:snap-path-mask="true"
     fit-margin-top="30"
     fit-margin-left="30"
     fit-margin-right="30"
     fit-margin-bottom="30" />
  <defs
     id="defs4">
    <style
       id="style2">.cls-1{fill:#1b3b6a;}.cls-2{fill:#a7a9ac;}.cls-3{fill:#8cc641;}.cls-4{fill:#fcb116;}.cls-5{fill:#f15a29;}</style>
  </defs>
  <title
     id="title6">designcrowd_105592_3871877_565497_sourcefile</title>
  <g
     id="g4564"
     inkscape:label="Cogs"
     transform="translate(30.09,30.09)">
    <path
       inkscape:label="Cog - Blue"
       id="path44"
       transform="translate(-187.48,-323.45)"
       d="m 301.81,404.1 a 1.24,1.24 0 0 0 -1,-1.17 l -6.09,-1.07 a 1.61,1.61 0 0 1 -1.2,-1.15 l -0.82,-3.07 a 1.4,1.4 0 0 1 0.2,-1.37 c 0.28,-0.23 0.4,-0.36 0.28,-0.28 l -1.08,0.67 -1.2,0.74 a 1.24,1.24 0 0 1 -1.52,-0.22 l -0.94,-1.05 -1.33,-1.49 -2.71,-3 c -0.37,-0.41 -0.74,-0.72 -0.83,-0.7 a 1.8,1.8 0 0 0 -0.45,1 3.08,3.08 0 0 0 0.39,1.75 c 0,0 4.41,7.26 4.41,12.3 a 20.1,20.1 0 0 1 -40.2,0 c 0,-4.48 3.49,-11.06 3.49,-11.06 a 1,1 0 0 0 -0.41,-1.36 l -0.64,-0.34 a 1.23,1.23 0 0 1 -0.57,-1.42 l 0.44,-1.34 a 1.3,1.3 0 0 0 -0.19,-1.33 2.27,2.27 0 0 0 -1.48,-0.21 l -5.43,1 a 1.47,1.47 0 0 0 -1.15,0.84 2.74,2.74 0 0 0 0.4,2 l 2.92,2.45 1.42,1.19 a 1.06,1.06 0 0 1 0.23,1.29 l -0.92,1.6 -1.51,2.62 -0.93,1.6 a 1,1 0 0 1 -1.22,0.45 l -1.74,-0.63 -1.43,-0.64 a 4.43,4.43 0 0 0 -1.92,-0.17 l -1.63,0.28 -1,0.18 c 0,0 0.14,0.44 0.33,1 l 1.31,3.58 0.5,1.36 c 0.08,0.23 0.6,0.5 1.14,0.59 l 3.18,0.56 1,0.17 0.21,1 0.82,3.07 a 1.61,1.61 0 0 1 -0.46,1.6 l -4.75,4 a 1.24,1.24 0 0 0 -0.27,1.51 l 1.85,3.21 a 1.24,1.24 0 0 0 1.44,0.52 l 5.81,-2.12 0.94,-0.35 0.67,0.73 2.25,2.26 0.73,0.68 -0.35,0.94 -2.09,5.7 a 1.24,1.24 0 0 0 0.52,1.44 l 3.21,1.85 a 1.24,1.24 0 0 0 1.51,-0.27 l 4,-4.75 0.64,-0.77 1,0.3 3.08,0.82 1,0.21 c 0,0 0.08,0.45 0.17,1 l 0.96,6.17 a 1.24,1.24 0 0 0 1.17,1 h 3.7 a 1.24,1.24 0 0 0 1.17,-1 l 1.07,-6.09 c 0.1,-0.54 0.17,-1 0.17,-1 l 1,-0.21 3.07,-0.82 a 1.61,1.61 0 0 1 1.59,0.46 l 4,4.75 a 1.24,1.24 0 0 0 1.51,0.27 l 3.21,-1.85 a 1.24,1.24 0 0 0 0.52,-1.44 l -2.12,-5.81 a 1.61,1.61 0 0 1 0.4,-1.61 l 2.25,-2.25 a 1.61,1.61 0 0 1 1.61,-0.4 l 5.82,2.12 a 1.23,1.23 0 0 0 1.44,-0.52 l 1.85,-3.21 a 1.24,1.24 0 0 0 -0.27,-1.51 l -4.74,-4 a 1.61,1.61 0 0 1 -0.46,-1.59 l 0.82,-3.07 a 1.61,1.61 0 0 1 1.2,-1.15 l 6,-1 a 9,9 0 0 0 1,-0.22 5.64,5.64 0 0 0 0.05,-1 z"
       class="cls-2"
       inkscape:connector-curvature="0"
       style="fill:#153c6a;fill-opacity:1" />
    <path
       inkscape:label="Cog - Green"
       id="path46"
       transform="translate(-187.48,-323.45)"
       d="m 244,386.53 a 1.24,1.24 0 0 1 -1.46,-0.48 l -0.74,-1.2 -1.05,-1.7 -2.18,-3.51 -1.05,-1.7 -0.74,-1.2 a 1.24,1.24 0 0 1 0.22,-1.52 l 1.05,-0.94 1.49,-1.33 3,-2.71 0.75,-0.67 -0.14,-0.25 a 2.18,2.18 0 0 0 -1.13,-0.39 l -2.09,-0.3 a 4.75,4.75 0 0 0 -1.93,0.2 l -1.81,0.66 a 1.61,1.61 0 0 1 -1.61,-0.4 l -1.81,-1.81 a 1.61,1.61 0 0 1 -0.4,-1.61 l 0.89,-2.43 a 6.2,6.2 0 0 0 0.31,-1.94 v -1 a 2,2 0 0 0 -0.9,-1.5 l -1.62,-0.94 a 1.24,1.24 0 0 0 -1.51,0.27 l -3.35,4 a 1.61,1.61 0 0 1 -1.59,0.46 l -2.48,-0.66 -1,-0.21 -0.17,-1 -0.9,-5.13 a 1.24,1.24 0 0 0 -1.17,-1 h -3 a 1.24,1.24 0 0 0 -1.17,1 l -0.9,5.13 c -0.09,0.54 -0.17,1 -0.17,1 l -1,0.21 -2.48,0.66 -1,0.3 -0.64,-0.77 -3.34,-4 a 1.24,1.24 0 0 0 -1.51,-0.27 l -2.62,1.51 a 1.24,1.24 0 0 0 -0.52,1.44 l 1.78,4.89 0.35,0.94 -0.73,0.67 -1.82,1.82 -0.67,0.73 -0.94,-0.35 -4.89,-1.78 a 1.24,1.24 0 0 0 -1.44,0.52 l -1.51,2.62 a 1.24,1.24 0 0 0 0.27,1.51 l 4,3.35 a 1.61,1.61 0 0 1 0.46,1.59 l -0.66,2.47 -0.21,1 -1,0.17 -5.13,0.9 a 1.24,1.24 0 0 0 -1,1.17 v 3 a 1.24,1.24 0 0 0 1,1.17 l 5.13,0.9 1,0.17 0.21,1 0.66,2.47 a 1.61,1.61 0 0 1 -0.46,1.59 l -4,3.35 a 1.24,1.24 0 0 0 -0.27,1.51 l 1.51,2.62 a 1.24,1.24 0 0 0 1.44,0.52 l 4.89,-1.78 0.94,-0.35 0.67,0.74 1.82,1.82 0.74,0.67 -0.35,0.94 -1.78,4.89 a 1.24,1.24 0 0 0 0.52,1.44 l 2.62,1.51 a 1.23,1.23 0 0 0 1.51,-0.27 l 3.34,-4 0.64,-0.77 1,0.3 2.48,0.66 1,0.21 c 0,0 0.08,0.45 0.17,1 l 0.9,5.13 a 1.24,1.24 0 0 0 1.17,1 h 3 a 1.24,1.24 0 0 0 1.17,-1 l 0.9,-5.13 0.17,-1 1,-0.21 2.48,-0.66 a 1.61,1.61 0 0 1 1.59,0.46 l 3.35,4 a 1.24,1.24 0 0 0 1.51,0.27 l 2.62,-1.51 a 1.24,1.24 0 0 0 0.52,-1.44 l -1.79,-4.89 a 1.61,1.61 0 0 1 0.4,-1.61 l 1.81,-1.81 a 1.61,1.61 0 0 1 1.61,-0.4 l 4.89,1.78 a 1.24,1.24 0 0 0 1.44,-0.52 l 1.51,-2.62 a 1.24,1.24 0 0 0 -0.27,-1.51 l -4,-3.35 a 1.61,1.61 0 0 1 -0.46,-1.59 l 0.66,-2.47 a 1.61,1.61 0 0 1 1.2,-1.15 l 5.13,-0.9 a 1.19,1.19 0 0 0 1,-1.08 c 0,-0.5 -0.24,-0.81 -0.54,-0.7 l -1.46,0.58 z m -26.6,15.68 a 17.7,17.7 0 1 1 17.7,-17.69 17.7,17.7 0 0 1 -17.7,17.69 z"
       class="cls-3"
       inkscape:connector-curvature="0"
       style="fill:#8cc641" />
    <path
       inkscape:label="Cog - Green fix"
       id="path48"
       transform="translate(-187.48,-323.45)"
       d="m 243.24,369.27 c 0,-0.09 -0.08,-0.16 -0.12,-0.17 -0.04,-0.01 0,0.1 0.07,0.24 0.07,0.14 0.08,0.02 0.05,-0.07 z"
       class="cls-3"
       inkscape:connector-curvature="0"
       style="fill:#8cc641" />
    <path
       inkscape:label="Cog - Green overlay"
       id="path50"
       transform="translate(-187.48,-323.45)"
       d="m 234.62,369.11 a 1.61,1.61 0 0 0 1.61,0.4 l 1.81,-0.66 c 0.52,-0.19 0.54,-0.4 0,-0.47 l -1.89,-0.27 -1.4,-0.2 a 1.24,1.24 0 0 1 -1,-1.14 v -1.41 c 0,-0.55 0,-1.45 -0.06,-2 v 0 c 0,-0.55 -0.19,-0.58 -0.37,-0.06 l -0.89,2.43 a 1.61,1.61 0 0 0 0.4,1.61 z"
       class="cls-3"
       inkscape:connector-curvature="0"
       style="fill:#8cc641" />
    <path
       inkscape:label="Cog - Yellow"
       id="path52"
       transform="translate(-187.48,-323.45)"
       d="m 355.3,400.83 a 1.24,1.24 0 0 0 1,-1.17 v -3 a 1.24,1.24 0 0 0 -1,-1.17 l -5.13,-0.9 a 1.61,1.61 0 0 1 -1.2,-1.15 l -0.66,-2.47 a 1.6,1.6 0 0 1 0.46,-1.59 l 4,-3.35 a 1.24,1.24 0 0 0 0.27,-1.51 l -1.51,-2.62 a 1.24,1.24 0 0 0 -1.44,-0.52 l -4.9,1.78 a 1.61,1.61 0 0 1 -1.61,-0.4 l -1.81,-1.81 a 1.61,1.61 0 0 1 -0.4,-1.61 l 1.79,-4.89 a 1.24,1.24 0 0 0 -0.52,-1.44 L 340,371.48 a 1.24,1.24 0 0 0 -1.51,0.27 l -3.35,4 a 1.61,1.61 0 0 1 -1.6,0.46 l -2.48,-0.66 -1,-0.21 c 0,0 -0.08,-0.45 -0.17,-1 l -0.9,-5.13 a 1.24,1.24 0 0 0 -1.17,-1 h -3 a 1.24,1.24 0 0 0 -1.17,1 l -0.9,5.13 -0.17,1 -1,0.21 -2.48,0.66 -1,0.3 -0.64,-0.77 -3.34,-4 a 1.24,1.24 0 0 0 -1.51,-0.27 l -0.45,0.26 a 1.84,1.84 0 0 0 -0.83,1.5 l 0.06,2 c 0,0.55 0.05,1.45 0.07,2 l 0.09,2 c 0,0.55 0,1 0,1 l -0.73,0.67 -1.82,1.82 c -0.37,0.41 -1,1 -1.42,1.41 l -0.09,0.08 a 1.93,1.93 0 0 1 -1.7,0.35 l -1.34,-0.44 -1.9,-0.63 -1.11,-0.37 a 1.28,1.28 0 0 0 -1.45,0.55 l -0.45,0.78 A 1.24,1.24 0 0 0 300,386 l 4,3.35 a 1.61,1.61 0 0 1 0.46,1.59 l -0.66,2.47 c -0.12,0.54 -0.21,1 -0.21,1 l -1,0.17 -5.13,0.9 a 1.24,1.24 0 0 0 -1,1.17 v 3 a 1.24,1.24 0 0 0 1,1.17 l 5.13,0.9 1,0.17 c 0,0 0.1,0.44 0.21,1 l 0.66,2.47 a 1.6,1.6 0 0 1 -0.46,1.59 l -1.37,1.15 -0.82,0.69 -0.82,0.69 -1,0.82 a 1.24,1.24 0 0 0 -0.27,1.51 l 1.51,2.62 a 1.24,1.24 0 0 0 1.44,0.52 l 4.89,-1.78 0.94,-0.35 0.67,0.73 1.82,1.82 0.73,0.68 -0.35,0.94 -1.78,4.89 a 1.24,1.24 0 0 0 0.52,1.44 l 2.62,1.51 a 1.24,1.24 0 0 0 1.51,-0.27 l 3.34,-4 0.64,-0.77 1,0.3 2.48,0.66 1,0.21 0.17,1 0.9,5.13 a 1.24,1.24 0 0 0 1.17,1 h 3 a 1.24,1.24 0 0 0 1.17,-1 l 0.9,-5.13 c 0.09,-0.54 0.17,-1 0.17,-1 l 1,-0.21 2.48,-0.66 a 1.61,1.61 0 0 1 1.6,0.46 l 3.35,4 a 1.24,1.24 0 0 0 1.51,0.27 l 2.62,-1.51 a 1.24,1.24 0 0 0 0.52,-1.44 L 341.37,417 a 1.61,1.61 0 0 1 0.4,-1.61 l 1.81,-1.81 a 1.61,1.61 0 0 1 1.61,-0.4 l 4.9,1.78 a 1.24,1.24 0 0 0 1.44,-0.52 L 353,411.8 a 1.24,1.24 0 0 0 -0.27,-1.51 l -4,-3.35 a 1.6,1.6 0 0 1 -0.46,-1.59 l 0.66,-2.47 a 1.61,1.61 0 0 1 1.2,-1.15 z m -28.94,15 a 17.7,17.7 0 1 1 17.7,-17.7 17.7,17.7 0 0 1 -17.7,17.71 z"
       class="cls-4"
       inkscape:connector-curvature="0"
       style="fill:#fcb116" />
    <path
       inkscape:label="Cog - Red"
       id="path54"
       transform="translate(-187.48,-323.45)"
       d="m 246.67,350.28 a 1.61,1.61 0 0 1 0.51,1.58 l -0.81,3.47 c -0.1,0.54 -0.18,1 -0.18,1 l -1,0.2 -6.66,1.38 a 1.24,1.24 0 0 0 -0.95,1.2 l 0.13,4.13 a 1.24,1.24 0 0 0 1,1.14 l 6.73,1 1,0.14 0.24,1 1,3.41 a 1.61,1.61 0 0 1 -0.41,1.61 l -5.01,4.46 a 1.24,1.24 0 0 0 -0.22,1.52 l 2.18,3.51 a 1.24,1.24 0 0 0 1.46,0.48 L 252,379 l 0.93,-0.38 0.7,0.71 2.6,2.45 0.76,0.65 -0.32,1 -2.13,6.45 a 1.24,1.24 0 0 0 0.57,1.42 l 3.64,2 a 1.24,1.24 0 0 0 1.5,-0.31 l 4.2,-5.35 0.62,-0.79 1,0.27 3.48,0.81 1,0.18 c 0,0 0.09,0.44 0.2,1 l 1.38,6.66 a 1.24,1.24 0 0 0 1.2,0.95 l 4.13,-0.13 a 1.24,1.24 0 0 0 1.14,-1 l 1,-6.73 c 0.08,-0.54 0.14,-1 0.14,-1 l 1,-0.24 3.42,-1 a 1.61,1.61 0 0 1 1.61,0.41 l 4.53,5.08 a 1.24,1.24 0 0 0 1.52,0.22 l 3.51,-2.18 a 1.24,1.24 0 0 0 0.48,-1.45 l -2.53,-6.31 a 1.61,1.61 0 0 1 0.35,-1.62 l 2.44,-2.6 a 1.61,1.61 0 0 1 1.6,-0.45 l 6.46,2.13 a 1.24,1.24 0 0 0 1.42,-0.57 l 1.95,-3.64 A 1.24,1.24 0 0 0 307,374 l -5.35,-4.2 a 1.61,1.61 0 0 1 -0.51,-1.58 l 0.82,-3.47 a 1.61,1.61 0 0 1 1.16,-1.19 l 6.65,-1.38 a 1.24,1.24 0 0 0 0.95,-1.2 l -0.13,-4.13 a 1.24,1.24 0 0 0 -1,-1.14 l -6.73,-1 a 1.61,1.61 0 0 1 -1.23,-1.11 l -1,-3.41 a 1.61,1.61 0 0 1 0.41,-1.61 l 5.07,-4.53 a 1.24,1.24 0 0 0 0.22,-1.52 L 304.14,339 a 1.24,1.24 0 0 0 -1.46,-0.48 l -6.32,2.53 a 1.61,1.61 0 0 1 -1.62,-0.35 l -2.6,-2.44 a 1.61,1.61 0 0 1 -0.45,-1.6 l 2.13,-6.45 a 1.24,1.24 0 0 0 -0.57,-1.42 l -3.64,-2 a 1.24,1.24 0 0 0 -1.5,0.31 l -4.2,5.35 a 1.61,1.61 0 0 1 -1.58,0.51 l -3.47,-0.81 -1,-0.18 -0.2,-1 -1.38,-6.66 a 1.24,1.24 0 0 0 -1.2,-0.95 l -4.13,0.13 a 1.24,1.24 0 0 0 -1.14,1 l -1,6.73 c -0.08,0.54 -0.14,1 -0.14,1 l -1,0.24 -3.42,1 -0.94,0.33 -0.66,-0.75 -4.53,-5.08 a 1.23,1.23 0 0 0 -1.51,-0.22 l -3.51,2.18 a 1.24,1.24 0 0 0 -0.48,1.46 l 2.53,6.31 0.38,0.93 -0.71,0.7 -2.45,2.61 -0.65,0.75 -1,-0.32 -6.46,-2.13 a 1.24,1.24 0 0 0 -1.42,0.57 l -2,3.64 a 1.24,1.24 0 0 0 0.31,1.5 z m 26.83,-11.85 h 0.69 a 21.6,21.6 0 0 1 0.67,43.19 h -0.69 a 21.6,21.6 0 0 1 -0.66,-43.19 z"
       class="cls-5"
       inkscape:connector-curvature="0"
       style="fill:#f15a29" />
  </g>
  <g
     aria-label="WorkCloud"
     transform="matrix(1.0006392,0,0,0.99936121,0,13.753048)"
     style="font-style:normal;font-weight:normal;font-size:40.65626144px;line-height:25.41016388px;font-family:sans-serif;letter-spacing:0px;word-spacing:0px;display:inline;fill:#1b3b6a;fill-opacity:1;stroke:none;stroke-width:1.01640642px;stroke-linecap:butt;stroke-linejoin:miter;stroke-opacity:1"
     id="text4538"
     inkscape:label="WorkCloud">
    <path
       d="m 221.91912,63.41771 9.31028,29.760383 h 6.58632 l 3.53709,-12.156222 3.98431,12.156222 h 6.58632 L 260.136,63.41771 h -6.05778 l -5.44794,22.198318 -4.71613,-14.514285 2.07347,-7.684033 h -6.09844 l -5.32597,22.117006 -6.62697,-22.117006 z"
       style="font-style:normal;font-variant:normal;font-weight:bold;font-stretch:normal;font-family:Exo;-inkscape-font-specification:'Exo Bold';fill:#1b3b6a;fill-opacity:1;stroke-width:1.01640642px"
       id="path4546"
       inkscape:connector-curvature="0" />
    <path
       d="m 258.88582,82.688778 c 0,7.724689 2.39872,10.692596 9.87948,10.692596 7.5214,0 9.83881,-2.683313 9.83881,-10.692596 0,-8.578472 -2.39872,-11.302441 -9.83881,-11.302441 -7.31813,0 -9.87948,2.480032 -9.87948,11.302441 z m 5.69188,0 c 0,-6.017127 0.81313,-6.708284 4.1876,-6.708284 3.37447,0 4.14693,0.691157 4.14693,6.708284 0,5.691876 -0.93509,6.139095 -4.14693,6.139095 -3.04922,0 -4.1876,-0.528531 -4.1876,-6.139095 z"
       style="font-style:normal;font-variant:normal;font-weight:bold;font-stretch:normal;font-family:Exo;-inkscape-font-specification:'Exo Bold';fill:#1b3b6a;fill-opacity:1;stroke-width:1.01640642px"
       id="path4548"
       inkscape:connector-curvature="0" />
    <path
       d="m 282.00081,93.178093 h 5.69188 V 79.436277 c 1.42297,-2.032813 3.13053,-2.39872 5.48859,-2.39872 1.21969,0 2.56135,0.04066 3.13054,0.121969 v -5.529252 c -0.56919,-0.203281 -1.46363,-0.243937 -2.39872,-0.243937 -2.68332,0 -4.71613,1.504281 -6.22041,2.927251 l -0.89444,-2.72397 h -4.79744 z"
       style="font-style:normal;font-variant:normal;font-weight:bold;font-stretch:normal;font-family:Exo;-inkscape-font-specification:'Exo Bold';fill:#1b3b6a;fill-opacity:1;stroke-width:1.01640642px"
       id="path4550"
       inkscape:connector-curvature="0" />
    <path
       d="m 298.99386,93.178093 h 5.69188 v -10.00144 h 1.17903 l 6.58631,10.00144 h 6.74894 l -8.09059,-12.156222 8.09059,-9.432253 h -7.19616 l -6.13909,7.236815 h -1.17903 V 61.384897 h -5.69188 z"
       style="font-style:normal;font-variant:normal;font-weight:bold;font-stretch:normal;font-family:Exo;-inkscape-font-specification:'Exo Bold';fill:#1b3b6a;fill-opacity:1;stroke-width:1.01640642px"
       id="path4552"
       inkscape:connector-curvature="0" />
    <path
       d="m 321.46216,78.216589 c 0,9.472909 2.60201,15.164785 10.12341,15.205442 4.26891,0.08131 7.72469,-0.284594 10.36735,-1.09772 v -4.472188 c 0,0 -4.71613,0.32525 -8.98503,0.32525 -4.71613,0 -5.81385,-3.211845 -5.81385,-9.879472 0,-8.985034 1.62625,-9.960784 5.77319,-9.960784 3.98431,0 8.98503,0.569188 9.02569,0.569188 v -4.431533 c -3.21184,-0.97575 -6.17975,-1.382313 -10.36735,-1.382313 -8.09059,0 -10.12341,5.610565 -10.12341,15.12413 z"
       style="font-style:normal;font-variant:normal;font-weight:bold;font-stretch:normal;font-family:Exo;-inkscape-font-specification:'Exo Bold';fill:#1b3b6a;fill-opacity:1;stroke-width:1.01640642px"
       id="path4554"
       inkscape:connector-curvature="0" />
    <path
       d="m 344.81156,85.49406 c 0,5.732532 2.07347,7.684033 5.61056,7.684033 h 4.67547 v -3.496439 c -0.28459,0 -2.72397,-0.853781 -2.72397,-0.853781 -1.09772,-0.406563 -1.87019,-1.057063 -1.87019,-4.228251 V 61.34424 h -5.69187 z"
       style="font-style:normal;font-variant:normal;font-weight:bold;font-stretch:normal;font-family:Exo;-inkscape-font-specification:'Exo Bold';fill:#1b3b6a;fill-opacity:1;stroke-width:1.01640642px"
       id="path4556"
       inkscape:connector-curvature="0" />
    <path
       d="m 356.39732,82.688778 c 0,7.724689 2.39872,10.692596 9.87947,10.692596 7.52141,0 9.83881,-2.683313 9.83881,-10.692596 0,-8.578472 -2.39872,-11.302441 -9.83881,-11.302441 -7.31813,0 -9.87947,2.480032 -9.87947,11.302441 z m 5.69187,0 c 0,-6.017127 0.81313,-6.708284 4.1876,-6.708284 3.37447,0 4.14694,0.691157 4.14694,6.708284 0,5.691876 -0.9351,6.139095 -4.14694,6.139095 -3.04922,0 -4.1876,-0.528531 -4.1876,-6.139095 z"
       style="font-style:normal;font-variant:normal;font-weight:bold;font-stretch:normal;font-family:Exo;-inkscape-font-specification:'Exo Bold';fill:#1b3b6a;fill-opacity:1;stroke-width:1.01640642px"
       id="path4558"
       inkscape:connector-curvature="0" />
    <path
       d="m 379.18707,85.981935 c 0,4.106282 1.42297,7.562064 6.46434,7.562064 3.29316,0 4.71613,-1.341656 6.83025,-2.642657 l 1.13838,2.276751 h 4.5535 V 71.589618 h -5.69188 V 87.12031 c -1.6669,1.260344 -2.92725,1.870188 -5.204,1.870188 -1.42297,0 -2.39872,-0.772469 -2.39872,-2.927251 V 71.589618 h -5.69187 z"
       style="font-style:normal;font-variant:normal;font-weight:bold;font-stretch:normal;font-family:Exo;-inkscape-font-specification:'Exo Bold';fill:#1b3b6a;fill-opacity:1;stroke-width:1.01640642px"
       id="path4560"
       inkscape:connector-curvature="0" />
    <path
       d="m 401.57977,82.485496 c 0,6.74894 1.74822,10.936535 7.07419,10.936535 2.56134,0 5.16334,-1.301001 6.505,-2.39872 l 1.0164,2.154782 h 4.67547 V 61.262928 h -5.65122 v 11.424409 c -1.99215,-0.894438 -4.71612,-1.422969 -6.54565,-1.422969 -5.97647,0 -7.07419,4.35022 -7.07419,11.221128 z m 5.69187,-0.203281 c 0,-5.529252 1.05707,-6.545658 2.84594,-6.545658 1.9515,0 3.5371,0.243937 5.04138,0.813125 v 10.692597 c -1.21969,0.772469 -2.8866,1.341656 -5.04138,1.341656 -1.82953,0 -2.84594,-1.504281 -2.84594,-6.30172 z"
       style="font-style:normal;font-variant:normal;font-weight:bold;font-stretch:normal;font-family:Exo;-inkscape-font-specification:'Exo Bold';fill:#1b3b6a;fill-opacity:1;stroke-width:1.01640642px"
       id="path4562"
       inkscape:connector-curvature="0" />
  </g>
</svg>
